<?xml version="1.0" encoding="UTF-8"?>
<!DOCTYPE svg PUBLIC "-//W3C//DTD SVG 1.1//EN" "http://www.w3.org/Graphics/SVG/1.1/DTD/svg11.dtd">
<svg  xmlns="http://www.w3.org/2000/svg" xmlns:xlink="http://www.w3.org/1999/xlink" viewport-fill="none" viewBox="0.0, 0.0, 3764.8870026538607, 1481.9993896484375" version="1.1" height="1481.9993896484375" width="3764.8870026538607">
<path fill="none" stroke="#ffd873" stroke-opacity="0.5" stroke-width="20.0" stroke-linecap="round" stroke-linejoin="round" d="M2426.24 1462.00C2424.10 1461.57 2415.00 1460.43 2412.01 1459.16C2409.03 1457.88 2407.18 1454.32 2406.33 1453.47"/><path fill="none" stroke="#ffd873" stroke-opacity="0.5" stroke-width="20.0" stroke-linecap="round" stroke-linejoin="round" d="M1681.41 869.65C1680.15 871.14 1674.16 879.86 1672.96 879.61C1671.77 879.37 1672.63 873.98 1673.45 868.02C1674.27 862.07 1677.70 844.31 1678.41 839.89C1678.56 839.01 1678.43 838.68 1678.19 838.57C1677.95 838.47 1677.40 838.67 1676.82 839.19C1676.23 839.71 1675.78 839.99 1674.27 842.05C1670.34 847.40 1654.72 869.30 1650.66 874.85C1648.52 877.79 1648.07 878.14 1647.23 879.10C1646.40 880.06 1645.50 880.98 1645.10 881.29C1644.80 881.51 1644.43 881.44 1644.57 881.10C1645.37 879.21 1646.25 876.83 1650.42 868.68C1654.61 860.51 1668.24 834.32 1672.46 826.63C1675.99 820.17 1677.38 818.87 1678.52 817.39C1679.20 816.52 1679.69 816.55 1680.07 816.80C1680.46 817.05 1681.05 817.40 1681.09 819.04C1681.32 827.78 1681.34 865.62 1681.59 875.04C1681.72 879.66 1682.27 880.41 1682.78 881.87C1683.29 883.32 1684.14 884.55 1684.99 884.74C1685.84 884.93 1687.30 884.29 1688.46 883.13C1689.62 881.96 1690.61 881.49 1692.72 876.97C1696.56 868.74 1710.05 836.88 1714.05 828.27C1716.91 822.10 1717.89 821.56 1719.36 819.55C1720.83 817.55 1722.68 815.61 1723.85 814.92C1725.03 814.23 1726.40 814.28 1727.19 814.95C1727.98 815.63 1728.74 817.50 1729.12 819.42C1729.50 821.34 1729.65 824.84 1729.72 827.77C1729.79 830.70 1729.88 832.24 1729.61 838.95C1729.34 845.67 1728.12 866.18 1727.91 872.52C1727.73 878.33 1727.98 879.95 1728.27 881.23C1728.51 882.27 1729.03 881.70 1729.87 881.03C1730.91 880.20 1733.36 877.34 1735.22 875.72C1737.08 874.10 1740.63 871.28 1742.26 870.21C1743.88 869.14 1744.42 868.96 1746.08 868.62C1747.73 868.28 1750.50 867.81 1753.31 867.95C1756.11 868.09 1762.43 869.36 1764.77 869.54C1767.10 869.73 1767.60 869.45 1768.87 869.18C1770.14 868.90 1771.87 868.37 1773.24 867.71C1774.60 867.05 1776.53 865.92 1777.97 864.77C1779.42 863.62 1780.43 862.87 1782.87 860.06C1785.31 857.25 1792.26 848.31 1794.23 846.03C1795.17 844.95 1795.61 844.76 1796.02 844.84C1796.42 844.92 1796.83 845.51 1796.95 846.59C1797.06 847.67 1797.15 848.58 1796.80 852.02C1796.45 855.47 1795.42 864.52 1794.61 869.56C1793.80 874.59 1792.20 882.39 1791.39 885.60C1790.57 888.80 1789.63 892.63 1789.18 890.91C1788.73 889.19 1788.64 877.46 1788.39 874.14C1788.13 870.82 1787.85 870.12 1787.47 868.77C1787.09 867.42 1786.49 866.00 1785.85 865.13C1785.22 864.26 1784.16 863.30 1783.22 862.96C1782.28 862.63 1780.90 862.63 1779.59 862.92C1778.29 863.21 1777.72 863.17 1774.53 864.88C1770.91 866.84 1759.28 873.99 1755.48 875.93C1751.67 877.87 1751.02 877.59 1749.14 877.82C1747.26 878.05 1744.77 877.91 1742.94 877.47C1741.11 877.03 1740.53 877.22 1736.92 874.87C1733.31 872.53 1722.54 864.17 1718.85 861.82C1715.15 859.46 1714.30 859.66 1712.31 859.19C1710.32 858.72 1707.60 858.59 1705.58 858.68C1703.56 858.78 1701.63 859.08 1698.82 859.81C1696.02 860.53 1689.47 862.94 1686.90 863.50C1684.34 864.06 1683.14 863.83 1681.72 863.54C1680.31 863.25 1678.63 862.61 1677.47 861.58C1676.30 860.55 1674.94 858.54 1673.95 856.68C1672.96 854.82 1671.68 851.58 1670.87 849.19C1670.06 846.80 1669.33 843.30 1668.57 840.75C1667.81 838.20 1666.70 834.47 1665.81 832.20C1664.91 829.93 1663.71 827.03 1662.61 825.64C1661.51 824.25 1659.90 823.16 1658.48 822.93C1657.06 822.70 1654.81 823.03 1653.14 824.13C1651.47 825.22 1649.19 827.85 1647.34 830.26C1645.49 832.67 1644.29 833.96 1640.81 840.18C1637.34 846.40 1627.17 866.38 1624.18 871.71C1622.47 874.74 1621.70 875.18 1620.83 875.70C1619.96 876.23 1618.90 876.02 1618.36 875.19C1617.83 874.35 1617.50 873.58 1617.26 870.16C1616.92 865.25 1616.45 846.30 1616.06 842.47C1615.89 840.76 1615.01 843.93 1614.67 844.65C1614.33 845.37 1613.91 846.31 1613.81 847.28C1613.70 848.24 1613.79 850.60 1613.99 851.09C1614.20 851.58 1614.62 851.10 1615.19 850.53C1615.75 849.97 1616.30 849.64 1617.74 847.32C1620.63 842.69 1631.33 824.42 1634.40 819.69C1636.38 816.62 1637.15 816.47 1638.20 815.74C1639.25 815.00 1640.62 814.50 1641.37 814.79C1642.12 815.09 1642.74 816.29 1643.20 817.70C1643.66 819.11 1644.25 819.79 1644.42 824.19C1644.65 830.12 1644.62 852.36 1644.73 857.24C1644.74 857.68 1644.95 857.03 1645.18 856.77C1645.40 856.50 1645.73 856.01 1646.25 855.47C1646.77 854.93 1648.12 853.50 1648.67 853.16C1649.22 852.82 1649.48 852.51 1649.91 853.22C1650.77 854.61 1653.45 860.84 1654.39 862.47C1655.20 863.85 1655.57 863.86 1656.22 864.04C1656.87 864.21 1657.86 864.07 1658.72 863.63C1659.59 863.20 1660.08 863.11 1661.99 861.15C1664.75 858.32 1673.98 847.88 1677.13 844.77C1680.28 841.65 1681.20 841.31 1683.00 840.40C1684.79 839.48 1687.38 838.76 1689.10 838.65C1690.82 838.55 1692.85 838.99 1694.44 839.71C1696.03 840.42 1697.36 841.17 1699.69 843.41C1702.03 845.66 1707.57 852.27 1710.01 854.67C1712.44 857.07 1714.08 858.36 1715.93 859.41C1717.78 860.46 1720.36 861.48 1722.34 861.65C1724.32 861.83 1727.06 861.27 1729.16 860.59C1731.26 859.90 1733.14 859.19 1736.36 857.10C1739.58 855.01 1747.46 848.75 1750.63 846.66C1753.80 844.57 1755.42 843.88 1757.48 843.16C1759.55 842.44 1762.35 841.80 1764.37 841.87C1766.39 841.93 1768.97 842.73 1770.95 843.57C1772.93 844.40 1773.79 844.64 1777.56 847.42C1781.33 850.21 1792.47 859.44 1796.06 862.12C1799.42 864.62 1799.91 864.55 1801.50 865.27C1803.10 865.98 1805.23 866.64 1806.70 866.88C1808.17 867.13 1809.96 867.04 1811.31 866.91C1812.67 866.78 1813.48 867.13 1815.73 866.00C1817.98 864.87 1824.40 860.47 1826.33 859.39C1827.72 858.62 1827.98 858.57 1828.64 858.81C1829.30 859.05 1830.22 859.85 1830.74 861.00C1831.26 862.15 1831.71 862.73 1832.12 866.47C1832.63 871.15 1833.66 887.36 1834.15 892.20C1834.60 896.65 1834.94 897.22 1835.38 898.79C1835.81 900.35 1836.43 901.95 1837.03 902.66C1837.64 903.37 1838.62 903.74 1839.41 903.53C1840.19 903.32 1841.36 902.43 1842.27 901.25C1843.18 900.07 1843.84 899.64 1845.48 895.67C1848.41 888.61 1859.07 860.99 1861.80 854.18C1862.87 851.50 1863.17 851.10 1863.66 850.28C1864.14 849.46 1864.58 848.95 1865.03 848.69C1865.48 848.43 1866.31 848.38 1866.67 848.52C1867.03 848.66 1867.20 849.25 1867.43 849.60C1867.66 849.96 1867.98 850.75 1868.21 850.90C1868.45 851.05 1868.82 851.14 1869.01 850.60C1869.37 849.55 1870.48 839.29 1870.63 843.89C1870.81 849.59 1870.21 881.15 1870.19 888.59C1870.18 891.87 1870.28 892.47 1870.49 893.50C1870.69 894.54 1871.05 895.35 1871.55 895.47C1872.05 895.60 1872.81 895.69 1873.81 894.34C1875.32 892.31 1879.69 885.17 1881.58 881.97C1883.47 878.77 1884.19 876.92 1886.42 873.00C1888.65 869.09 1894.19 859.33 1896.43 855.88C1898.67 852.43 1899.48 851.79 1901.33 850.01C1903.17 848.24 1907.25 845.11 1908.74 844.04C1910.23 842.98 1910.45 843.10 1911.26 842.89C1912.08 842.69 1913.71 842.54 1914.16 842.68C1914.62 842.81 1914.51 843.59 1914.30 843.79C1914.09 843.99 1913.13 843.50 1912.78 844.02C1912.43 844.55 1912.21 846.17 1911.96 847.30C1911.71 848.43 1911.59 848.69 1911.12 851.53C1910.47 855.50 1908.33 867.87 1907.60 873.75C1906.87 879.63 1906.29 888.16 1906.26 890.73C1906.26 891.49 1907.01 891.41 1907.41 890.84C1907.82 890.26 1908.26 889.63 1908.96 886.90C1909.93 883.14 1912.07 875.98 1913.87 865.76C1915.68 855.54 1919.62 828.59 1921.00 818.80C1922.38 809.01 1922.84 803.45 1923.08 800.50C1923.15 799.57 1922.88 798.96 1922.59 799.18C1922.30 799.40 1921.83 800.00 1921.14 801.99C1920.14 804.91 1917.18 814.60 1915.89 818.65C1914.60 822.71 1914.76 822.73 1912.55 829.02C1910.34 835.31 1904.10 853.05 1901.19 860.59C1898.27 868.12 1894.57 876.14 1893.13 879.25C1892.41 880.80 1891.96 881.01 1891.57 881.29C1891.18 881.56 1890.80 881.72 1890.55 881.07C1890.18 880.11 1889.33 878.68 1889.14 874.91C1888.95 871.14 1889.09 860.72 1889.28 855.91C1889.47 851.10 1890.23 843.08 1890.39 842.88C1890.55 842.67 1890.38 851.35 1890.36 854.55C1890.33 857.74 1890.20 858.58 1890.25 864.18C1890.30 869.77 1890.46 886.93 1890.68 891.84C1890.83 895.27 1891.30 895.91 1891.70 896.89C1892.10 897.87 1892.72 898.45 1893.36 898.38C1893.99 898.31 1895.07 897.58 1895.94 896.42C1896.80 895.26 1897.50 894.73 1899.15 890.65C1902.05 883.48 1912.11 856.30 1915.28 848.63C1917.93 842.21 1919.32 840.78 1920.27 839.48C1920.85 838.70 1921.32 839.36 1921.65 839.94C1921.98 840.53 1922.37 841.04 1922.47 843.41C1922.67 848.18 1922.89 866.60 1922.99 871.76C1923.07 875.75 1923.00 875.85 1923.16 877.75C1923.33 879.65 1923.86 883.32 1924.09 884.41C1924.22 884.99 1924.43 885.53 1924.74 885.02C1925.17 884.34 1925.81 883.44 1926.92 879.89C1928.12 876.04 1931.67 862.80 1932.75 859.34C1933.30 857.54 1933.69 857.19 1934.06 856.84C1934.44 856.49 1935.12 856.23 1935.23 857.00C1935.88 861.64 1937.65 882.43 1938.36 887.73C1938.80 890.97 1939.33 891.54 1940.00 892.35C1940.67 893.15 1941.80 893.46 1942.83 893.09C1943.85 892.72 1945.53 891.55 1946.83 889.88C1948.14 888.21 1949.26 886.43 1951.53 881.94C1953.80 877.46 1959.08 866.48 1961.98 859.97C1964.87 853.47 1969.49 840.57 1970.81 838.60C1972.13 836.63 1971.23 841.37 1970.79 846.87C1970.12 855.02 1967.06 884.86 1966.39 892.96C1965.96 898.22 1966.24 899.04 1966.38 900.88C1966.52 902.72 1966.87 904.29 1967.31 905.21C1967.75 906.12 1968.60 906.88 1969.31 906.97C1970.03 907.05 1970.75 907.29 1972.08 905.78C1973.57 904.09 1977.05 899.49 1979.26 895.66C1981.47 891.83 1985.17 883.55 1986.82 880.27C1988.47 876.99 1989.34 875.37 1990.27 873.78C1991.20 872.19 1992.31 870.35 1993.00 869.68C1993.69 869.02 1994.38 868.90 1994.88 869.36C1995.38 869.83 1995.98 870.32 1996.33 872.76C1996.94 877.07 1998.33 893.13 1998.94 898.09C1999.54 903.05 1999.83 904.06 2000.37 905.84C2000.91 907.61 2001.69 909.39 2002.57 909.91C2003.44 910.44 2004.97 910.26 2006.18 909.36C2007.39 908.46 2009.18 906.18 2010.64 903.90C2012.11 901.62 2012.87 900.89 2015.95 894.16C2019.94 885.46 2033.86 853.11 2037.23 845.87C2037.56 845.15 2038.29 845.10 2038.42 845.89C2038.64 847.33 2038.71 853.03 2038.74 855.48C2038.76 857.94 2038.61 859.53 2038.59 862.26C2038.57 864.98 2038.54 871.51 2038.61 873.66C2038.68 875.63 2038.85 876.09 2039.06 876.59C2039.27 877.09 2039.59 877.55 2040.02 877.00C2040.58 876.30 2041.72 874.81 2042.75 871.93C2043.79 869.04 2047.20 854.95 2046.94 857.77C2046.69 860.58 2041.83 885.73 2041.06 890.69C2040.98 891.18 2041.59 891.29 2041.78 890.84C2042.70 888.60 2045.83 879.89 2047.21 875.76C2048.60 871.63 2049.39 868.50 2051.02 863.31C2052.66 858.12 2056.77 845.26 2058.12 841.18C2059.25 837.75 2059.59 836.84 2060.02 836.11C2060.34 835.56 2060.96 835.70 2060.95 836.33C2060.91 838.55 2060.62 843.78 2059.78 850.88C2058.95 857.98 2055.43 882.41 2055.37 883.67C2055.32 884.92 2058.61 864.96 2059.41 859.25C2060.21 853.54 2060.70 847.81 2060.72 845.60C2060.73 844.50 2060.08 844.17 2059.51 844.48C2058.95 844.79 2057.89 846.05 2056.96 847.67C2056.02 849.29 2054.59 852.65 2053.30 855.27C2052.00 857.89 2050.43 860.75 2048.31 865.12C2046.19 869.50 2041.00 880.82 2039.17 884.42C2037.49 887.74 2036.82 888.41 2036.13 889.11C2035.44 889.82 2034.64 890.16 2034.59 889.13C2034.34 884.34 2034.53 863.16 2034.44 857.19C2034.37 851.93 2034.28 851.25 2034.03 849.31C2033.79 847.38 2033.22 845.42 2032.79 844.30C2032.36 843.18 2031.77 842.21 2031.17 841.87C2030.58 841.52 2029.60 841.62 2028.85 841.99C2028.11 842.35 2027.46 842.69 2026.22 844.30C2024.98 845.91 2021.58 851.48 2020.60 852.72C2020.21 853.22 2019.91 853.05 2019.67 852.57C2019.43 852.10 2019.08 850.96 2018.98 849.57C2018.89 848.17 2018.98 845.39 2019.05 843.27C2019.12 841.14 2019.27 838.87 2019.46 835.41C2019.64 831.95 2020.28 822.81 2020.29 820.21C2020.29 818.65 2019.97 817.81 2019.46 818.02C2018.95 818.24 2018.04 818.91 2016.89 821.64C2015.10 825.87 2010.87 836.02 2007.53 846.22C2004.20 856.42 1995.37 886.25 1994.66 889.65C1993.94 893.04 2000.89 873.12 2002.78 868.88C2004.66 864.63 2006.32 862.46 2007.23 861.32C2007.92 860.45 2008.23 860.41 2008.89 861.24C2009.54 862.06 2010.95 865.14 2011.59 866.80C2012.22 868.45 2012.56 870.77 2013.11 872.27C2013.67 873.77 2014.44 875.78 2015.27 876.81C2016.10 877.85 2017.44 879.09 2018.63 879.18C2019.83 879.27 2021.63 878.88 2023.22 877.42C2024.82 875.96 2027.29 872.52 2029.25 869.43C2031.22 866.35 2032.24 865.01 2036.34 856.85C2040.45 848.70 2052.98 822.20 2056.60 815.08C2058.67 811.00 2059.56 810.21 2060.46 809.40C2061.35 808.60 2062.17 808.84 2062.56 809.74C2062.94 810.63 2063.15 811.60 2063.04 815.37C2062.94 819.15 2062.49 828.12 2061.84 834.97C2061.20 841.82 2059.16 857.33 2058.77 861.03C2058.67 861.98 2059.07 860.13 2059.21 859.67C2059.35 859.21 2059.58 858.39 2059.71 857.98C2059.84 857.56 2060.20 856.20 2060.06 856.93C2058.60 864.59 2051.33 901.21 2049.96 909.04C2049.85 909.65 2050.55 909.65 2050.88 909.13C2051.43 908.28 2051.95 907.29 2053.58 903.39C2056.25 897.00 2065.67 873.57 2068.70 866.47C2071.74 859.37 2072.48 858.50 2073.82 856.07C2075.16 853.63 2076.62 851.38 2077.61 850.24C2078.60 849.09 2079.75 848.35 2080.44 848.42C2081.12 848.49 2081.77 848.84 2082.18 850.73C2082.63 852.81 2083.15 859.64 2083.45 862.31C2083.75 864.99 2083.88 866.90 2084.20 868.56C2084.52 870.22 2085.05 872.38 2085.60 873.40C2086.14 874.42 2087.08 875.19 2087.84 875.36C2088.61 875.53 2089.76 875.16 2090.70 874.53C2091.65 873.90 2092.23 873.74 2094.15 871.16C2096.29 868.29 2102.95 858.17 2104.94 855.44C2106.31 853.56 2106.85 853.17 2107.43 852.98C2108.00 852.80 2108.50 853.28 2108.80 854.22C2109.10 855.17 2109.49 855.88 2109.41 859.27C2109.27 866.19 2107.97 894.06 2107.81 900.34C2107.79 900.99 2108.07 901.75 2108.33 901.16C2109.29 898.96 2113.03 888.97 2114.21 885.69C2115.40 882.42 2115.53 881.53 2116.25 879.31C2116.98 877.09 2118.59 871.04 2119.04 870.89C2119.49 870.75 2119.09 877.04 2119.28 878.32C2119.42 879.31 2119.82 879.57 2120.26 879.45C2120.70 879.32 2121.44 879.16 2122.19 877.49C2124.95 871.35 2135.31 846.06 2138.66 838.50C2142.00 830.95 2143.70 827.62 2144.47 827.12C2145.25 826.63 2144.84 830.64 2143.85 835.20C2142.86 839.76 2139.31 852.23 2137.88 857.51C2136.44 862.78 2136.10 864.66 2134.27 870.36C2132.45 876.06 2126.56 893.64 2125.74 895.52C2124.92 897.39 2127.89 885.56 2128.80 882.86C2129.71 880.16 2131.02 878.47 2131.80 877.50C2132.58 876.53 2132.98 876.26 2134.00 876.38C2135.02 876.50 2137.46 878.09 2138.61 878.31C2139.77 878.52 2140.59 878.27 2141.68 877.82C2142.77 877.37 2144.48 876.48 2145.88 875.32C2147.27 874.15 2149.30 872.03 2150.96 870.04C2152.62 868.05 2155.13 864.61 2156.96 862.07C2158.79 859.52 2160.59 856.67 2163.16 853.10C2165.73 849.54 2171.92 840.90 2174.11 838.29C2176.03 836.00 2176.88 835.96 2177.75 835.69C2178.62 835.41 2179.44 835.68 2179.92 836.45C2180.41 837.23 2180.79 839.08 2181.00 840.85C2181.22 842.62 2181.31 843.31 2181.38 848.26C2181.46 854.46 2181.38 876.33 2181.54 882.15C2181.63 885.45 2182.13 886.08 2182.47 887.02C2182.80 887.96 2183.28 888.35 2183.77 888.40C2184.26 888.45 2185.02 888.15 2185.74 887.36C2186.45 886.57 2187.19 885.79 2188.54 883.13C2189.88 880.47 2192.64 874.52 2194.68 869.62C2196.73 864.73 2200.86 853.87 2202.14 850.51C2202.96 848.38 2202.96 848.08 2203.24 847.26C2203.53 846.45 2203.97 843.55 2204.02 845.07C2204.07 846.60 2203.49 854.82 2203.59 857.44C2203.69 860.06 2204.30 861.58 2204.68 862.52C2205.07 863.47 2205.45 863.54 2206.17 863.73C2206.88 863.93 2208.73 864.01 2209.45 863.82C2210.17 863.64 2210.28 863.66 2210.97 862.51C2211.81 861.15 2214.35 855.75 2215.01 854.72C2215.34 854.18 2215.27 854.99 2215.32 855.62C2215.37 856.31 2215.49 856.86 2215.35 859.32C2215.16 862.70 2214.88 869.32 2214.04 878.17C2213.20 887.02 2210.47 911.01 2209.77 918.33C2209.23 924.07 2209.37 924.99 2209.41 926.97C2209.44 928.95 2209.69 930.77 2210.04 931.50C2210.39 932.22 2211.14 932.23 2211.72 931.82C2212.31 931.41 2212.96 931.09 2213.92 928.78C2215.04 926.06 2216.77 924.08 2219.20 913.73C2221.95 902.02 2229.59 862.85 2232.25 850.73C2234.87 838.78 2235.85 836.62 2236.90 832.98C2237.95 829.35 2238.58 827.98 2239.24 826.48C2239.91 824.97 2240.81 823.44 2241.36 822.94C2241.91 822.43 2242.57 822.54 2242.92 823.14C2243.27 823.73 2243.77 824.34 2243.71 826.91C2243.64 830.46 2243.62 837.19 2242.44 846.78C2241.25 856.38 2237.56 880.66 2235.79 890.90C2234.03 901.13 2231.88 909.85 2230.67 915.01C2229.46 920.17 2228.22 923.79 2227.70 925.32C2227.59 925.63 2227.25 925.50 2227.22 925.16C2227.18 924.60 2227.11 923.94 2227.43 921.54C2227.79 918.75 2228.16 913.80 2229.67 906.60C2231.18 899.40 2235.89 879.79 2237.48 873.53C2238.98 867.67 2239.55 867.12 2240.28 864.89C2241.01 862.67 2241.74 860.11 2242.35 858.68C2242.96 857.26 2243.84 855.93 2244.35 855.40C2244.86 854.87 2245.38 854.30 2245.76 855.17C2246.20 856.14 2246.92 857.33 2247.23 861.88C2247.54 866.44 2247.56 879.71 2247.83 885.57C2248.11 891.42 2248.64 897.73 2249.05 900.91C2249.46 904.09 2250.00 905.29 2250.59 906.77C2251.18 908.25 2252.12 909.96 2252.99 910.76C2253.86 911.56 2255.10 912.30 2256.39 912.11C2257.69 911.91 2259.88 910.93 2261.62 909.43C2263.37 907.94 2265.95 905.05 2268.05 902.13C2270.15 899.21 2273.22 894.19 2275.63 889.96C2278.04 885.73 2280.40 881.50 2284.11 873.95C2287.82 866.39 2296.89 846.76 2300.37 839.58C2303.85 832.41 2305.48 829.52 2307.29 826.12C2309.10 822.73 2311.08 818.98 2312.44 816.94C2313.80 814.90 2315.41 813.15 2316.36 812.53C2317.30 811.91 2318.28 812.15 2318.75 812.82C2319.22 813.49 2319.47 815.15 2319.52 816.97C2319.57 818.79 2319.40 822.15 2319.08 824.97C2318.75 827.78 2318.49 830.16 2317.33 835.75C2316.18 841.35 2313.84 852.17 2311.37 862.27C2308.91 872.37 2301.90 898.23 2300.91 903.08C2299.93 907.92 2303.44 898.06 2304.81 894.59C2306.18 891.12 2308.76 883.54 2310.05 879.94C2311.33 876.34 2311.35 876.89 2313.37 870.58C2316.30 861.40 2327.71 823.21 2329.63 818.70C2331.55 814.19 2328.46 828.15 2326.16 840.53C2323.86 852.91 2316.15 891.23 2314.29 901.23C2313.57 905.14 2313.81 905.92 2313.80 907.17C2313.80 908.42 2313.47 910.24 2314.25 909.56C2315.03 908.88 2317.76 904.96 2318.98 902.64C2320.21 900.32 2320.35 899.88 2322.40 894.10C2326.04 883.88 2339.24 845.27 2343.21 834.49C2346.33 826.02 2347.78 824.25 2348.89 822.20C2349.59 820.92 2350.18 820.89 2350.62 820.86C2351.07 820.84 2351.60 820.92 2351.85 822.02C2352.24 823.71 2353.01 828.22 2353.22 832.16C2353.44 836.10 2353.44 841.84 2353.29 848.27C2353.13 854.70 2352.19 870.68 2352.18 875.03C2352.18 876.63 2352.75 876.97 2353.20 877.21C2353.65 877.45 2354.45 877.32 2355.17 876.63C2355.89 875.95 2357.04 874.30 2358.03 872.63C2359.02 870.96 2359.57 870.40 2361.76 865.51C2364.82 858.68 2375.52 833.53 2378.45 827.14C2379.87 824.04 2380.60 823.74 2381.31 822.89C2382.02 822.03 2382.72 821.37 2383.17 821.45C2383.61 821.53 2384.05 822.43 2384.26 823.42C2384.47 824.42 2384.56 824.97 2384.56 828.10C2384.56 834.32 2384.19 858.90 2384.24 864.90C2384.26 867.10 2384.60 867.54 2384.93 868.13C2385.26 868.73 2385.84 869.08 2386.43 868.88C2387.03 868.67 2387.62 868.52 2388.89 866.78C2390.35 864.76 2394.54 858.20 2396.22 855.41C2397.89 852.63 2398.49 850.97 2400.08 848.21C2401.66 845.45 2405.45 839.08 2406.78 837.02C2407.97 835.16 2408.34 834.81 2408.92 834.48C2409.49 834.15 2410.24 833.74 2410.60 834.83C2411.05 836.17 2411.55 837.63 2411.93 843.40C2412.31 849.37 2412.87 869.20 2413.18 874.61C2413.37 877.88 2413.66 878.31 2414.00 879.45C2414.33 880.60 2414.93 881.73 2415.41 882.23C2415.89 882.74 2416.54 882.94 2417.19 882.83C2417.85 882.73 2418.96 882.25 2419.75 881.53C2420.55 880.82 2420.91 880.56 2422.50 878.09C2424.99 874.23 2433.85 859.82 2436.35 855.80C2438.24 852.77 2438.46 852.36 2439.21 851.28C2439.96 850.20 2440.74 849.07 2441.35 848.59C2441.96 848.11 2442.76 847.17 2443.28 848.09C2443.79 849.01 2444.45 850.47 2444.81 854.73C2445.17 858.98 2445.35 872.31 2445.67 876.45C2445.98 880.48 2446.41 880.88 2446.94 882.37C2447.47 883.86 2448.38 885.58 2449.20 886.36C2450.03 887.13 2451.33 887.57 2452.42 887.53C2453.50 887.49 2455.16 886.94 2456.44 886.08C2457.73 885.22 2458.77 884.52 2460.98 881.81C2463.18 879.11 2467.85 872.86 2471.13 868.07C2474.41 863.27 2480.76 852.91 2482.85 849.83C2484.04 848.08 2484.52 847.87 2485.05 847.55C2485.59 847.23 2486.05 847.33 2486.41 847.69C2486.78 848.06 2487.07 848.34 2487.48 849.96C2488.08 852.35 2489.75 860.96 2490.44 863.68C2491.12 866.39 2491.44 866.94 2492.05 868.05C2492.67 869.17 2493.69 870.48 2494.52 871.13C2495.36 871.79 2496.58 872.39 2497.63 872.43C2498.68 872.47 2500.27 872.12 2501.53 871.43C2502.78 870.74 2503.93 870.22 2506.02 867.83C2508.10 865.44 2512.87 859.13 2515.41 855.49C2517.95 851.85 2521.41 845.82 2522.93 843.57C2524.46 841.31 2524.94 841.02 2525.58 840.45C2526.23 839.89 2526.83 839.60 2527.24 839.79C2527.65 839.98 2528.12 840.75 2528.30 841.70C2528.48 842.64 2528.67 843.17 2528.43 846.09C2528.13 849.78 2526.66 862.37 2526.26 866.28C2525.87 870.19 2525.93 870.24 2525.78 872.18C2525.63 874.12 2525.26 878.00 2525.25 879.19C2525.24 879.88 2525.21 880.41 2525.69 880.12C2526.18 879.83 2526.93 879.43 2528.48 877.25C2530.79 874.00 2538.36 862.07 2541.12 858.44C2543.89 854.81 2545.71 853.80 2546.92 853.07C2548.13 852.33 2548.58 853.09 2549.18 853.52C2549.79 853.96 2550.26 854.08 2550.93 855.97C2551.88 858.64 2554.39 868.33 2555.48 871.34C2556.56 874.35 2557.26 874.87 2558.18 876.04C2559.11 877.21 2560.38 878.55 2561.63 879.14C2562.87 879.72 2564.92 879.92 2566.49 879.92C2568.06 879.93 2570.37 879.78 2572.11 879.17C2573.86 878.57 2576.24 877.12 2578.12 875.88C2579.99 874.63 2581.07 874.07 2584.61 870.89C2588.14 867.70 2598.44 857.57 2601.67 854.65C2604.43 852.16 2604.91 852.16 2606.19 851.40C2607.47 850.65 2609.12 849.87 2610.18 849.61C2611.24 849.35 2612.44 849.49 2613.25 849.66C2614.06 849.82 2614.94 850.22 2615.57 850.73C2616.21 851.25 2616.72 851.75 2617.47 853.09C2618.21 854.43 2619.44 857.93 2620.54 859.67C2621.64 861.41 2623.13 863.78 2624.80 864.70C2626.46 865.61 2628.76 866.15 2631.63 865.79C2634.50 865.43 2641.54 863.09 2643.94 862.31C2646.33 861.53 2646.06 861.02 2647.60 860.57C2649.14 860.13 2652.86 859.34 2654.19 859.34C2655.52 859.33 2655.94 859.89 2656.49 860.52C2657.05 861.16 2657.58 862.41 2657.87 863.57C2658.16 864.72 2658.27 865.09 2658.45 868.21C2658.63 871.37 2658.86 881.69 2659.09 884.64C2659.26 886.83 2659.57 887.24 2659.95 887.82C2660.33 888.41 2660.98 888.71 2661.62 888.57C2662.26 888.42 2663.23 887.94 2664.20 886.85C2665.17 885.77 2665.75 885.19 2668.10 881.35C2672.47 874.21 2689.16 846.05 2693.32 839.23C2694.77 836.86 2695.34 836.42 2695.85 835.91C2696.26 835.50 2696.59 835.55 2696.72 835.86C2696.86 836.18 2696.96 836.61 2696.75 838.04C2696.08 842.54 2692.92 861.07 2692.29 865.88C2691.92 868.65 2691.87 870.53 2692.55 870.06C2693.22 869.59 2694.84 867.14 2696.78 862.77C2698.72 858.40 2702.41 849.25 2705.50 840.92C2708.59 832.60 2715.50 812.97 2717.39 807.27C2718.31 804.49 2718.19 803.68 2718.09 802.93C2717.99 802.17 2717.51 801.87 2716.72 802.24C2715.92 802.61 2715.18 803.05 2712.78 805.41C2710.21 807.93 2702.89 815.66 2699.59 819.08C2696.30 822.50 2694.85 824.25 2690.79 828.21C2686.73 832.16 2677.86 840.97 2672.53 845.45C2667.20 849.93 2659.00 855.59 2655.26 858.08C2651.52 860.57 2650.53 860.94 2647.58 862.03C2644.63 863.12 2639.54 864.84 2635.61 865.35C2631.68 865.85 2624.16 865.30 2621.40 865.40C2618.63 865.50 2618.39 865.70 2617.16 866.01C2615.93 866.32 2615.67 866.11 2613.20 867.46C2610.54 868.91 2601.60 874.59 2599.44 875.71C2598.82 876.03 2598.90 875.43 2598.79 874.89C2598.68 874.34 2598.63 873.21 2598.72 872.07C2598.81 870.93 2598.85 870.12 2599.39 867.30C2599.92 864.47 2601.04 858.46 2602.30 853.25C2603.55 848.04 2608.51 831.51 2607.75 832.55C2606.99 833.59 2601.53 849.70 2597.22 860.18C2592.91 870.66 2581.26 898.31 2579.04 902.43C2576.82 906.54 2581.36 891.60 2582.41 887.61C2583.46 883.63 2584.14 881.81 2586.05 875.87C2587.96 869.92 2591.23 859.13 2595.17 847.99C2599.10 836.85 2609.58 809.13 2612.29 801.59C2613.18 799.11 2613.15 798.42 2613.22 797.74C2613.28 797.20 2613.14 796.66 2612.77 797.06C2611.76 798.14 2610.40 799.47 2606.52 804.95C2601.98 811.35 2587.23 833.18 2582.52 839.74C2578.03 846.00 2577.43 846.06 2575.15 848.65C2572.87 851.23 2569.69 854.66 2567.32 856.96C2564.95 859.27 2561.74 862.20 2559.33 864.04C2556.93 865.88 2553.67 867.91 2551.29 869.24C2548.91 870.58 2545.68 872.16 2543.47 872.93C2541.26 873.70 2538.55 874.15 2536.54 874.37C2534.53 874.59 2531.90 874.54 2530.04 874.39C2528.19 874.24 2526.77 874.29 2524.19 873.39C2521.61 872.48 2518.70 871.50 2512.84 868.36C2506.97 865.22 2490.59 855.42 2485.07 852.47C2479.54 849.53 2477.93 849.42 2476.01 848.74C2474.08 848.06 2473.25 848.06 2472.22 847.95C2471.18 847.84 2469.98 847.82 2469.11 848.00C2468.24 848.19 2467.11 848.58 2466.42 849.17C2465.73 849.76 2464.97 850.91 2464.51 851.93C2464.06 852.96 2463.54 854.63 2463.37 855.98C2463.19 857.34 2463.05 859.41 2463.34 860.96C2463.62 862.51 2464.31 864.81 2465.25 866.30C2466.19 867.79 2467.85 869.66 2469.60 870.86C2471.35 872.07 2474.23 873.52 2476.90 874.33C2479.58 875.15 2483.95 875.99 2487.45 876.30C2490.95 876.60 2496.06 876.60 2500.23 876.37C2504.41 876.15 2510.43 875.51 2515.26 874.78C2520.09 874.04 2524.10 873.49 2532.47 871.47C2540.84 869.45 2549.84 867.40 2571.06 861.32C2592.28 855.24 2655.88 836.15 2673.92 830.93C2685.42 827.60 2686.36 827.62 2691.33 826.49C2696.29 825.36 2702.70 824.11 2707.02 823.41C2711.34 822.71 2716.53 822.12 2720.13 821.81C2723.74 821.50 2727.17 821.15 2731.05 821.33C2734.93 821.51 2743.15 822.58 2746.01 823.01C2748.83 823.43 2749.26 823.81 2750.13 824.16C2751.00 824.51 2751.68 825.00 2751.80 825.33C2751.91 825.65 2751.77 826.13 2750.89 826.33C2741.11 828.56 2700.30 836.80 2686.57 840.21C2672.84 843.63 2667.99 845.76 2659.37 849.09C2650.76 852.41 2634.42 859.92 2629.15 862.40C2625.61 864.06 2620.35 865.13 2624.23 865.59C2628.20 866.06 2649.15 865.62 2655.63 865.54C2662.12 865.45 2663.74 865.32 2667.48 865.03C2671.22 864.75 2673.96 864.71 2680.57 863.66C2687.19 862.61 2696.10 861.53 2711.58 858.03C2727.06 854.54 2770.74 843.29 2783.79 840.34C2793.46 838.16 2797.83 838.56 2798.53 838.37C2799.23 838.18 2790.93 838.76 2788.47 839.08C2786.01 839.40 2784.24 839.96 2782.15 840.49C2780.06 841.02 2777.89 841.40 2774.55 842.59C2771.20 843.78 2763.08 847.07 2759.84 848.42C2756.61 849.77 2754.88 850.59 2752.96 851.60C2751.05 852.60 2748.61 854.03 2747.08 855.10C2745.55 856.18 2743.74 857.61 2742.76 858.76C2741.78 859.92 2740.74 861.58 2740.55 862.79C2740.36 864.01 2740.68 865.69 2741.48 866.88C2742.28 868.07 2744.13 869.67 2745.88 870.74C2747.64 871.80 2750.53 873.11 2753.17 873.99C2755.81 874.86 2760.11 875.98 2763.51 876.58C2766.90 877.19 2771.81 877.77 2775.80 878.03C2779.78 878.29 2785.59 878.38 2790.07 878.31C2794.55 878.24 2800.90 878.03 2805.67 877.58C2810.44 877.14 2816.95 876.12 2821.85 875.34C2826.75 874.57 2833.57 873.44 2838.35 872.40C2843.12 871.37 2847.53 870.46 2853.66 868.47C2859.80 866.49 2873.19 861.85 2879.27 859.17C2885.34 856.50 2891.51 852.37 2894.16 850.65C2896.44 849.16 2896.53 848.46 2896.95 847.66C2897.36 846.85 2897.29 845.93 2896.91 845.28C2896.53 844.64 2896.37 844.11 2894.40 843.37C2891.94 842.44 2886.30 840.33 2880.51 839.09C2874.72 837.86 2861.84 835.83 2855.79 835.13C2849.74 834.44 2845.15 834.45 2840.17 834.46C2835.19 834.48 2828.10 834.70 2822.59 835.24C2817.09 835.79 2809.26 836.95 2803.49 838.08C2797.73 839.21 2789.90 841.22 2784.18 842.78C2778.46 844.34 2774.22 845.39 2765.36 848.50C2756.49 851.61 2731.95 860.90 2725.07 863.53C2721.27 864.98 2720.47 865.44 2719.49 866.00C2718.58 866.52 2718.32 866.82 2718.53 867.25C2718.74 867.69 2719.04 868.39 2720.88 868.90C2723.75 869.69 2733.23 871.69 2737.66 872.56C2742.08 873.43 2746.07 874.27 2750.37 874.72C2754.66 875.18 2761.29 875.59 2766.31 875.61C2771.33 875.64 2778.27 875.49 2783.81 874.90C2789.35 874.31 2797.09 873.02 2803.25 871.67C2809.42 870.33 2811.64 870.35 2824.91 865.92C2838.18 861.50 2876.22 847.48 2891.70 842.17C2907.19 836.86 2920.66 832.74 2928.15 830.53C2935.64 828.32 2938.14 828.11 2941.66 827.46C2945.17 826.81 2949.06 826.42 2951.60 826.21C2954.14 826.00 2956.97 825.94 2958.62 826.04C2960.26 826.15 2961.75 826.58 2962.57 826.90C2963.39 827.21 2963.97 827.79 2964.08 828.12C2964.18 828.44 2963.93 828.78 2963.26 829.08C2962.60 829.38 2962.14 829.81 2959.64 830.12C2950.11 831.29 2911.61 835.31 2899.70 836.86C2887.79 838.40 2886.38 839.21 2880.23 840.42C2874.08 841.63 2869.01 842.54 2858.71 844.93C2848.40 847.31 2821.89 853.90 2811.51 856.32C2801.13 858.74 2795.69 859.89 2789.51 861.07C2783.33 862.26 2775.51 863.63 2770.31 864.21C2765.12 864.79 2758.81 864.99 2754.87 864.94C2750.93 864.88 2746.83 864.29 2744.03 863.86C2741.24 863.43 2738.10 862.63 2736.25 862.06C2734.41 861.50 2732.56 860.61 2731.74 860.10C2730.93 859.58 2730.70 858.96 2730.82 858.62C2730.95 858.28 2731.47 858.01 2732.57 857.82C2733.68 857.63 2734.44 857.47 2738.20 857.35C2746.53 857.09 2772.16 856.84 2788.16 856.07C2804.15 855.29 2833.01 853.04 2844.83 852.21C2856.65 851.38 2860.35 850.90 2866.96 850.54C2873.57 850.18 2882.44 849.87 2888.88 849.80C2895.32 849.73 2903.78 849.76 2909.92 850.10C2916.07 850.45 2922.03 850.65 2929.85 852.11C2937.68 853.56 2951.02 856.46 2962.08 859.79C2973.15 863.12 2999.52 872.45 3003.61 874.32C3007.69 876.19 2994.91 872.70 2989.31 872.25C2983.71 871.81 2971.87 871.44 2966.27 871.38C2960.67 871.31 2958.82 871.29 2951.99 871.83C2945.16 872.37 2927.79 874.25 2920.73 874.98C2913.66 875.72 2913.05 875.91 2904.89 876.74C2896.74 877.57 2873.56 879.93 2866.35 880.51C2860.00 881.03 2857.46 880.76 2856.79 880.64C2856.12 880.52 2858.43 879.80 2861.88 879.70C2869.42 879.48 2888.87 880.39 2907.08 879.21C2925.28 878.02 2965.77 873.28 2983.25 871.80C3000.72 870.33 3013.19 869.84 3023.56 869.36C3033.94 868.88 3046.66 868.78 3052.44 868.61C3058.21 868.44 3057.37 868.51 3062.03 868.24C3066.70 867.96 3088.39 866.19 3083.56 866.77C3078.73 867.36 3043.01 870.55 3029.85 872.13C3016.70 873.71 3003.64 875.90 2995.87 877.33C2988.10 878.75 2983.24 880.24 2978.05 881.65C2972.86 883.06 2967.41 884.67 2961.25 886.74C2955.09 888.80 2941.66 893.61 2937.01 895.39C2932.35 897.16 2930.89 898.11 2930.23 898.55C2929.56 898.99 2931.04 898.65 2932.59 898.32C2937.13 897.34 2942.11 897.09 2960.51 892.04C2979.14 886.93 3036.20 869.63 3056.75 864.24C3077.30 858.84 3088.99 857.59 3097.52 856.06C3106.04 854.53 3107.26 854.55 3113.59 854.04C3119.92 853.53 3139.67 852.81 3139.72 852.67C3139.78 852.53 3119.92 852.98 3113.94 853.12C3107.96 853.26 3109.25 853.21 3099.87 853.62C3089.70 854.07 3057.21 855.39 3046.12 856.12C3035.04 856.85 3031.82 857.57 3025.96 858.47C3020.09 859.38 3012.44 860.86 3007.03 862.15C3001.63 863.44 2994.56 865.51 2989.92 867.05C2985.27 868.59 2979.47 870.89 2976.05 872.39C2972.64 873.90 2969.16 875.89 2967.16 877.09C2965.16 878.29 2963.37 879.65 2962.72 880.41C2962.07 881.17 2962.19 881.78 2962.83 882.16C2963.47 882.53 2964.17 882.86 2966.99 882.92C2970.37 882.98 2980.63 882.79 2985.38 882.57C2990.14 882.34 2994.38 881.93 2998.70 881.40C3003.02 880.87 3003.96 881.19 3014.18 879.02C3027.51 876.19 3073.81 865.60 3087.58 862.54C3099.82 859.82 3097.19 860.55 3105.98 858.62C3114.76 856.69 3138.66 851.39 3146.12 849.64C3152.58 848.14 3154.24 847.49 3155.72 847.01C3156.13 846.87 3156.37 846.55 3155.96 846.41C3154.78 846.00 3152.05 845.02 3147.80 844.27C3143.55 843.53 3135.17 842.13 3127.60 841.43C3120.04 840.74 3104.60 839.89 3097.34 839.62C3090.08 839.35 3084.96 839.45 3079.20 839.64C3073.43 839.84 3065.11 840.32 3058.91 840.92C3052.71 841.52 3044.13 842.67 3037.89 843.65C3031.65 844.62 3027.23 845.32 3017.32 847.43C3007.40 849.55 2979.72 856.09 2971.80 857.75C2966.99 858.75 2966.03 858.45 2964.46 858.51C2962.90 858.57 2961.83 858.40 2961.37 858.18C2960.91 857.96 2960.88 857.41 2961.39 857.03C2961.91 856.65 2962.41 856.17 2964.80 855.64C2967.60 855.02 2974.12 853.50 2980.03 852.90C2985.94 852.30 2988.07 851.36 3004.20 851.65C3023.64 852.01 3091.32 854.49 3109.62 855.25C3120.73 855.71 3123.05 856.29 3126.23 856.70C3129.40 857.10 3130.31 857.70 3130.86 857.94C3131.41 858.18 3130.54 858.23 3129.89 858.30C3129.25 858.36 3128.79 858.39 3126.58 858.39C3122.83 858.40 3111.63 858.54 3104.90 858.33C3098.17 858.13 3089.46 857.67 3081.71 857.03C3073.96 856.39 3065.26 855.61 3053.23 854.06C3041.20 852.51 3009.27 847.71 3001.48 846.68C3001.15 846.64 3001.03 847.07 3001.35 847.17C3002.82 847.65 3008.28 849.22 3011.28 849.88C3014.28 850.55 3017.93 851.18 3021.35 851.59C3024.77 852.00 3029.77 852.39 3034.10 852.59C3038.42 852.80 3045.08 853.01 3050.21 852.98C3055.34 852.94 3062.54 852.63 3068.29 852.35C3074.05 852.07 3075.54 851.74 3088.57 851.13C3101.60 850.52 3142.11 848.63 3155.15 848.26C3168.20 847.89 3169.87 848.38 3175.56 848.67C3181.25 848.96 3188.24 849.52 3193.09 850.17C3197.94 850.83 3203.89 851.99 3207.91 853.01C3211.93 854.04 3216.78 855.71 3219.87 856.98C3222.95 858.26 3226.26 860.14 3228.49 861.52C3230.73 862.89 3233.27 864.82 3234.77 866.14C3236.27 867.45 3237.82 869.10 3238.48 870.28C3239.14 871.46 3239.30 872.92 3239.18 874.03C3239.05 875.14 3238.60 876.59 3237.65 877.68C3236.70 878.78 3234.62 880.26 3232.83 881.31C3231.04 882.36 3228.16 883.78 3225.71 884.69C3223.26 885.60 3219.56 886.73 3216.48 887.38C3213.40 888.04 3212.79 888.77 3205.19 889.07C3197.30 889.38 3172.42 889.32 3163.88 889.43C3155.34 889.55 3154.98 889.36 3148.29 889.84C3141.60 890.33 3127.10 891.49 3119.27 892.65C3111.45 893.80 3099.51 896.74 3096.09 897.56C3095.64 897.67 3096.05 898.11 3096.51 898.12C3098.41 898.13 3103.35 898.15 3108.71 897.67C3114.07 897.20 3121.52 896.72 3132.24 894.96C3142.96 893.19 3167.29 888.92 3180.16 885.91C3193.03 882.90 3209.62 877.54 3218.06 874.86C3226.49 872.19 3228.33 871.50 3236.39 868.09C3244.45 864.68 3265.93 854.82 3271.80 852.13C3274.33 850.96 3274.90 850.53 3275.48 850.14C3275.83 849.89 3276.04 849.62 3275.63 849.50C3275.18 849.38 3274.60 849.24 3272.53 849.30C3268.04 849.44 3254.25 849.54 3245.73 850.46C3237.21 851.37 3223.01 853.89 3215.72 855.39C3208.43 856.88 3206.24 857.33 3197.14 860.45C3188.04 863.58 3169.73 870.25 3155.07 876.21C3140.40 882.17 3109.32 896.00 3099.40 900.21C3092.50 903.13 3091.48 903.47 3088.91 904.25C3086.34 905.03 3080.81 905.96 3082.26 905.41C3083.70 904.86 3094.42 901.66 3098.51 900.55C3102.59 899.45 3103.77 899.24 3109.50 898.04C3115.23 896.85 3127.65 894.62 3136.69 892.58C3145.73 890.54 3156.47 888.21 3169.75 884.41C3183.04 880.62 3214.56 870.50 3225.23 867.30C3235.62 864.19 3236.76 864.11 3240.94 863.08C3245.12 862.06 3249.30 861.01 3253.12 860.47C3256.93 859.92 3274.70 859.07 3266.36 859.44C3258.02 859.81 3210.76 862.25 3197.50 862.95C3184.49 863.64 3187.49 863.19 3177.99 864.11C3168.48 865.02 3143.90 867.70 3134.14 869.06C3124.38 870.43 3121.03 871.27 3112.94 873.21C3104.84 875.16 3087.18 879.80 3080.17 882.04C3073.16 884.28 3068.30 887.02 3066.19 888.16C3065.34 888.61 3065.63 889.31 3066.15 889.60C3066.66 889.89 3068.10 890.14 3069.65 890.10C3071.20 890.06 3074.06 889.79 3076.50 889.34C3078.93 888.89 3082.71 888.11 3085.89 887.11C3089.07 886.12 3092.20 885.23 3097.69 882.72C3103.18 880.21 3111.13 876.40 3122.50 870.38C3133.87 864.36 3164.74 847.41 3173.51 842.61C3178.52 839.86 3179.20 839.41 3180.94 838.34C3182.68 837.26 3184.47 836.05 3185.11 835.43C3185.71 834.84 3186.02 834.16 3185.18 834.17C3182.21 834.19 3172.32 834.74 3165.31 835.59C3158.30 836.44 3150.97 837.41 3138.46 839.82C3125.95 842.24 3093.58 849.04 3081.90 851.67C3070.22 854.31 3069.62 854.64 3060.61 857.37C3051.59 860.11 3031.79 866.35 3021.82 869.91C3011.86 873.47 3000.50 878.41 2994.18 881.10C2987.85 883.79 2982.24 886.52 2979.65 887.82C2977.66 888.82 2976.93 889.49 2976.91 889.74C2976.89 889.98 2977.83 889.90 2979.51 889.45C2983.05 888.52 2992.46 886.12 3000.52 883.48C3008.59 880.84 3022.02 875.46 3033.27 871.84C3044.53 868.23 3067.64 861.81 3075.59 859.36C3082.81 857.13 3088.27 856.12 3086.26 855.52C3084.25 854.91 3067.50 855.23 3062.17 855.32C3056.85 855.41 3054.41 855.62 3050.78 856.12C3047.15 856.63 3041.89 857.67 3037.97 858.70C3034.06 859.73 3028.67 861.41 3024.68 862.97C3020.68 864.54 3015.11 867.11 3011.34 869.14C3007.56 871.16 3002.67 874.32 2999.49 876.46C2996.31 878.60 2992.51 881.42 2990.12 883.39C2987.72 885.36 2984.83 888.04 2983.52 889.60C2982.21 891.17 2981.53 892.80 2981.38 893.82C2981.22 894.84 2981.54 895.83 2982.48 896.42C2983.41 897.01 2984.09 897.46 2987.62 897.72C2991.37 898.00 2996.99 898.28 3007.44 898.25C3017.89 898.22 3046.60 897.79 3057.28 897.53C3067.96 897.26 3065.28 897.43 3078.66 896.49C3092.05 895.55 3133.09 892.36 3146.52 891.25C3159.95 890.14 3158.85 890.25 3168.18 889.11C3177.51 887.97 3199.97 884.88 3208.72 883.66C3217.47 882.43 3221.43 881.76 3226.50 880.96C3231.56 880.16 3236.39 879.15 3242.49 878.33C3248.58 877.51 3262.14 875.89 3267.11 875.49C3272.09 875.10 3273.46 875.48 3275.66 875.70C3277.85 875.91 3280.29 876.41 3281.75 876.94C3283.21 877.48 3284.61 878.46 3285.40 879.26C3286.18 880.06 3286.89 881.33 3287.01 882.27C3287.13 883.20 3286.84 884.49 3286.21 885.52C3285.58 886.54 3283.98 888.10 3282.81 889.08C3281.63 890.05 3281.13 890.70 3278.38 892.00C3275.63 893.30 3271.85 895.14 3264.49 897.75C3257.13 900.36 3234.87 907.41 3229.31 909.38C3227.81 909.90 3227.58 910.42 3227.41 910.82C3227.24 911.22 3227.44 911.84 3228.15 912.04C3228.87 912.25 3230.42 912.27 3232.17 912.19C3233.92 912.12 3236.99 912.03 3239.82 911.55C3242.66 911.08 3244.85 911.01 3251.07 909.05C3257.29 907.09 3263.11 906.33 3281.31 898.49C3299.51 890.64 3357.19 864.00 3372.40 856.77C3379.74 853.27 3381.15 851.54 3382.72 850.26C3383.77 849.41 3383.32 848.81 3382.83 848.24C3382.34 847.67 3381.01 846.94 3379.45 846.44C3377.89 845.95 3374.98 845.28 3372.42 844.94C3369.86 844.61 3365.88 844.19 3362.38 844.20C3358.88 844.21 3353.43 844.41 3349.07 845.00C3344.71 845.59 3338.32 846.79 3333.31 848.13C3328.29 849.46 3321.23 851.75 3315.65 853.91C3310.07 856.06 3302.00 859.59 3296.11 862.48C3290.21 865.37 3282.20 869.82 3276.33 873.18C3270.46 876.55 3264.53 879.88 3256.99 884.91C3249.45 889.95 3232.13 902.37 3226.08 906.76C3220.03 911.16 3218.75 912.46 3216.63 914.22C3214.52 915.99 3212.68 917.74 3211.97 918.53C3211.55 918.99 3211.32 919.61 3211.93 919.47C3221.95 917.06 3265.97 905.80 3278.74 902.48C3291.03 899.28 3291.27 899.11 3297.07 897.29C3302.87 895.47 3311.23 892.66 3317.39 890.33C3323.56 888.00 3331.90 884.53 3338.16 881.77C3344.41 879.02 3353.01 875.02 3359.08 871.97C3365.14 868.92 3373.22 864.43 3378.59 861.45C3383.96 858.47 3388.34 855.98 3394.87 852.09C3401.41 848.20 3419.88 838.23 3422.14 835.52C3424.39 832.82 3415.22 834.16 3409.93 834.05C3404.63 833.94 3392.58 834.41 3386.82 834.79C3381.06 835.17 3378.91 835.37 3371.54 836.56C3364.18 837.75 3347.91 840.43 3337.70 842.73C3327.49 845.02 3310.89 849.71 3303.46 851.87C3296.04 854.04 3293.67 854.95 3288.19 857.16C3282.70 859.37 3270.83 864.68 3266.89 866.60C3263.30 868.35 3262.79 869.23 3261.94 869.97C3261.08 870.71 3260.84 871.16 3261.17 871.55C3261.50 871.94 3262.04 872.52 3264.12 872.57C3268.75 872.67 3283.39 872.93 3291.99 872.24C3300.60 871.54 3305.70 871.27 3321.50 867.93C3337.30 864.59 3376.78 854.46 3397.33 849.96C3417.90 845.46 3447.47 840.25 3458.56 837.91C3467.19 836.09 3469.48 834.99 3471.31 834.38C3471.81 834.21 3471.27 833.90 3470.76 833.82C3469.43 833.63 3464.94 833.12 3462.46 833.05C3459.98 832.97 3457.14 833.05 3454.23 833.31C3451.32 833.56 3446.78 834.09 3443.09 834.74C3439.40 835.39 3436.17 835.54 3429.63 837.62C3423.09 839.71 3406.45 845.87 3399.51 848.67C3392.58 851.47 3393.71 851.00 3383.42 856.27C3373.13 861.55 3335.75 880.60 3330.91 883.84C3326.07 887.08 3337.53 881.35 3351.18 877.87C3366.01 874.08 3414.98 862.14 3429.82 858.58C3443.24 855.36 3441.47 855.83 3450.05 854.16C3458.63 852.49 3477.68 848.77 3487.02 847.46C3496.36 846.15 3506.75 845.70 3512.33 845.41C3517.90 845.13 3528.65 844.22 3524.20 845.56C3519.74 846.90 3499.64 850.33 3482.62 854.33C3465.59 858.34 3427.34 868.27 3410.71 872.26C3394.08 876.25 3378.21 879.55 3371.78 880.93C3369.19 881.48 3365.34 882.33 3367.84 881.47C3370.46 880.57 3377.73 879.02 3389.20 874.93C3400.67 870.84 3431.88 858.58 3444.30 854.20C3456.72 849.82 3465.39 847.60 3472.00 845.73C3478.60 843.86 3478.90 843.41 3488.33 841.72C3497.76 840.04 3525.21 835.61 3534.88 834.52C3544.54 833.42 3550.09 834.31 3552.76 834.40C3553.26 834.42 3553.14 834.87 3552.73 835.14C3552.31 835.42 3551.25 835.71 3550.00 836.24C3548.76 836.78 3548.16 837.10 3544.42 838.71C3538.78 841.14 3521.44 848.41 3512.39 852.44C3503.34 856.46 3494.07 860.48 3484.08 865.54C3474.09 870.61 3453.16 882.03 3445.77 886.21C3438.39 890.38 3436.40 892.14 3434.86 893.37C3434.22 893.88 3434.65 894.41 3435.45 894.43C3437.36 894.47 3442.28 894.53 3447.54 893.67C3452.80 892.81 3462.32 891.20 3470.50 888.69C3478.69 886.18 3491.72 881.01 3502.12 876.92C3512.52 872.83 3531.22 864.85 3539.82 861.44C3548.42 858.04 3551.46 857.06 3559.47 854.22C3567.49 851.38 3583.75 845.57 3593.25 842.52C3602.75 839.48 3619.92 835.05 3622.81 833.90C3625.70 832.76 3615.47 834.41 3612.53 834.89C3609.59 835.37 3606.37 836.27 3603.19 837.12C3600.01 837.97 3595.23 839.26 3591.32 840.56C3587.41 841.86 3584.10 842.86 3577.14 845.79C3570.18 848.73 3552.27 856.70 3544.90 860.12C3537.53 863.55 3534.63 865.11 3528.00 868.60C3521.36 872.09 3506.43 880.01 3500.66 883.36C3494.89 886.72 3491.09 889.83 3489.52 890.97C3489.14 891.24 3489.82 891.16 3490.24 890.93C3497.51 886.89 3525.85 870.40 3538.04 864.02C3550.24 857.63 3558.29 854.09 3571.53 848.36C3584.77 842.64 3612.32 831.30 3626.32 825.86C3640.32 820.43 3659.95 813.26 3664.84 812.12C3669.73 810.99 3660.53 816.40 3658.92 818.29C3657.30 820.17 3655.72 822.47 3654.05 824.67C3652.38 826.88 3651.79 827.46 3647.79 832.96C3643.79 838.45 3631.13 855.93 3627.39 861.31C3624.05 866.12 3623.91 866.94 3622.85 868.83C3621.80 870.71 3620.81 872.57 3620.37 873.87C3619.93 875.17 3619.73 876.72 3619.91 877.48C3620.10 878.24 3620.12 878.96 3621.60 878.93C3623.21 878.89 3628.04 878.05 3630.65 877.24C3633.25 876.43 3634.27 875.76 3638.96 873.54C3643.65 871.32 3656.36 865.29 3661.90 862.44C3667.44 859.58 3669.53 858.35 3675.87 854.50C3682.22 850.66 3696.61 841.93 3704.22 836.79C3711.82 831.66 3721.35 824.38 3726.58 820.25C3731.80 816.12 3736.62 811.41 3739.03 809.27C3741.45 807.12 3741.88 806.64 3742.69 805.95C3743.51 805.26 3744.14 804.70 3744.45 804.68C3744.76 804.66 3745.06 805.08 3744.77 805.80C3744.41 806.74 3744.10 807.65 3742.03 810.93C3739.60 814.76 3735.70 821.60 3728.60 831.37C3721.51 841.14 3702.97 865.84 3694.73 876.09C3686.50 886.33 3677.94 895.09 3673.70 899.67C3669.46 904.26 3668.18 905.17 3666.46 906.65C3664.74 908.13 3663.16 909.06 3662.22 909.55C3661.29 910.04 3660.56 910.22 3660.22 909.92C3659.88 909.62 3659.83 908.56 3659.97 907.55C3660.12 906.54 3660.18 905.82 3661.21 903.20C3662.24 900.58 3664.56 894.45 3666.84 890.07C3669.11 885.69 3674.13 877.67 3676.40 873.99C3678.66 870.31 3679.43 869.16 3681.95 865.53C3684.47 861.91 3690.71 853.10 3693.20 849.83C3695.69 846.55 3696.64 845.61 3698.56 843.71C3700.48 841.82 3704.55 838.25 3705.97 837.18C3707.12 836.31 3707.58 836.50 3708.03 836.54C3708.49 836.59 3708.96 836.59 3709.00 837.50C3709.10 839.30 3709.12 846.05 3708.66 848.52C3708.19 850.99 3706.37 853.12 3705.89 853.96C3705.73 854.24 3705.68 854.37 3705.44 854.15C3705.02 853.75 3703.42 852.15 3703.07 851.30C3702.71 850.44 3703.07 848.90 3703.07 848.47"/><path fill="none" stroke="#ffd873" stroke-opacity="0.5" stroke-width="20.0" stroke-linecap="round" stroke-linejoin="round" d="M122.82 965.65C122.40 965.86 120.86 966.82 120.00 967.06C119.14 967.30 118.96 966.73 117.07 967.27C114.04 968.12 103.52 971.75 99.80 972.78C96.08 973.80 94.35 973.92 92.25 974.07C90.15 974.21 87.78 974.09 85.80 973.73C83.82 973.38 80.99 972.59 79.05 971.73C77.11 970.87 76.22 970.49 72.87 968.02C69.51 965.55 59.70 957.48 56.70 955.27C54.42 953.59 54.12 953.75 52.91 953.34C51.71 952.94 49.54 952.63 48.65 952.58C47.77 952.53 47.34 953.09 47.04 953.01C46.73 952.93 46.71 952.74 46.65 952.04C46.56 951.17 46.23 949.01 46.46 947.18C46.70 945.34 47.31 941.89 48.21 939.81C49.12 937.74 51.39 934.62 52.48 933.34C53.58 932.06 54.57 931.73 55.53 931.26C56.48 930.79 57.86 930.25 58.87 930.21C59.88 930.17 61.17 930.45 62.25 930.99C63.34 931.52 65.03 932.62 66.11 933.78C67.19 934.93 68.45 936.91 69.46 938.70C70.47 940.49 71.01 940.87 72.86 945.74C76.06 954.20 87.59 986.78 90.82 995.10C92.52 999.50 93.44 999.95 94.38 1001.22C95.31 1002.49 96.37 1003.41 97.03 1003.58C97.70 1003.74 98.35 1003.18 98.82 1002.32C99.28 1001.46 99.88 999.60 100.13 997.83C100.38 996.05 100.51 994.47 100.47 990.48C100.43 986.50 100.37 977.72 99.84 971.24C99.31 964.76 97.51 951.33 96.93 947.29C96.63 945.20 96.23 944.77 95.96 944.28C95.69 943.79 95.24 943.45 95.13 944.02C94.74 945.94 93.64 953.03 93.37 957.07C93.10 961.12 93.20 968.05 93.35 970.99C93.50 973.93 93.93 975.19 94.38 976.67C94.82 978.14 95.62 979.91 96.34 980.82C97.07 981.73 98.21 982.49 99.20 982.75C100.19 983.01 101.76 982.91 102.93 982.55C104.11 982.19 105.75 981.39 107.04 980.37C108.33 979.35 109.58 978.41 111.53 975.74C113.48 973.07 116.89 968.70 120.05 962.58C123.22 956.45 130.47 939.37 132.63 934.91C133.42 933.27 133.92 932.93 134.41 932.85C134.90 932.76 135.62 932.95 135.89 934.32C136.43 936.98 137.59 946.20 137.99 950.63C138.40 955.05 138.60 957.45 138.59 963.83C138.58 970.20 138.25 986.96 137.94 993.14C137.63 999.32 137.02 1001.86 136.51 1005.02C136.00 1008.18 135.14 1011.96 134.54 1014.21C133.95 1016.46 133.19 1018.88 132.53 1020.01C131.88 1021.14 130.79 1021.65 130.18 1021.76C129.58 1021.88 128.96 1021.67 128.49 1020.77C128.03 1019.87 127.48 1017.76 127.08 1015.73C126.68 1013.70 126.22 1012.29 125.84 1007.23C125.46 1002.17 124.80 990.21 124.54 981.98C124.27 973.76 124.01 960.40 124.05 952.40C124.10 944.40 124.61 933.30 124.85 928.64C125.09 923.98 125.34 923.08 125.65 921.32C125.96 919.57 126.88 913.87 126.93 916.93C127.08 926.30 127.01 968.73 126.65 983.80C126.29 998.87 124.91 1011.70 124.54 1017.40C124.34 1020.32 124.19 1021.04 124.15 1021.78C124.12 1022.15 124.17 1022.70 124.22 1022.33C125.15 1014.84 129.02 981.83 130.37 971.79C131.72 961.76 132.23 960.17 133.19 955.41C134.16 950.65 135.64 944.25 136.82 940.06C137.99 935.87 139.74 930.64 141.03 927.48C142.33 924.31 144.16 920.89 145.45 918.99C146.74 917.09 148.43 915.46 149.63 914.79C150.82 914.13 152.34 914.14 153.42 914.57C154.49 915.00 155.83 916.37 156.79 917.66C157.76 918.95 158.97 921.28 159.82 923.17C160.67 925.06 161.41 926.44 162.44 930.25C163.47 934.05 165.62 942.57 166.68 948.53C167.73 954.49 168.90 965.21 169.46 970.00C170.02 974.80 170.04 976.32 170.41 980.51C170.79 984.71 171.62 994.67 171.96 997.95C172.26 1000.93 172.38 1001.62 172.65 1002.39C172.91 1003.15 173.35 1003.61 173.70 1003.07C174.06 1002.52 174.53 1001.73 175.02 998.78C175.65 995.01 176.40 991.12 177.88 977.90C179.37 964.69 183.93 916.90 184.92 910.68C185.91 904.46 184.89 928.40 184.47 936.43C184.06 944.46 182.71 957.93 182.15 964.22C181.60 970.50 181.59 971.55 180.78 978.35C179.97 985.16 177.61 1015.13 176.77 1009.58C175.94 1004.04 175.47 957.31 175.23 941.41C174.98 925.50 176.29 899.72 175.15 903.55C174.00 907.38 169.12 954.62 167.59 966.94C166.06 979.26 166.10 978.60 164.97 985.68C163.85 992.77 161.09 1008.84 160.07 1014.16C159.17 1018.88 158.68 1019.77 158.20 1021.12C157.71 1022.47 157.17 1023.15 156.86 1023.16C156.56 1023.17 156.32 1022.57 156.17 1021.18C155.93 1018.86 155.30 1014.39 155.24 1007.71C155.18 1001.02 155.34 983.61 155.76 976.61C156.19 969.60 157.53 963.90 158.08 961.01C158.57 958.48 159.04 958.03 159.46 957.40C159.88 956.76 160.50 956.56 160.88 956.78C161.27 957.00 161.74 957.30 162.05 958.86C162.44 960.82 163.20 965.88 163.46 969.87C163.73 973.87 163.74 982.05 163.80 985.48C163.86 988.92 163.90 990.11 163.87 992.77C163.85 995.43 163.42 1004.76 163.62 1003.21C163.82 1001.65 164.32 990.53 165.22 982.41C166.11 974.30 168.20 958.76 169.58 949.09C170.96 939.42 173.42 923.83 174.43 917.94C175.35 912.48 175.83 911.22 176.26 909.84C176.56 908.87 177.23 907.72 177.30 908.73C177.45 911.18 177.48 921.27 177.30 926.16C177.12 931.05 176.88 934.06 176.08 941.30C175.27 948.54 173.15 965.92 171.96 974.45C170.76 982.98 168.83 993.75 168.08 998.15C167.43 1001.94 167.17 1002.70 166.91 1003.80C166.65 1004.89 166.39 1006.15 166.35 1005.47C166.32 1004.79 166.44 1001.19 166.69 999.25C166.94 997.31 167.14 996.04 168.01 992.53C168.87 989.03 170.72 980.50 172.45 975.85C174.18 971.20 177.86 964.30 179.52 961.53C181.19 958.76 182.34 958.16 183.53 957.38C184.72 956.59 186.34 956.20 187.43 956.28C188.52 956.35 189.74 957.04 190.80 957.88C191.86 958.73 192.99 959.71 194.49 961.89C195.98 964.06 199.28 970.23 200.77 972.40C202.27 974.56 203.33 975.59 204.45 976.30C205.57 977.01 206.98 977.43 208.24 977.13C209.50 976.83 211.42 975.87 212.84 974.31C214.27 972.74 216.23 969.50 217.73 966.73C219.23 963.96 221.36 959.32 222.85 955.84C224.34 952.35 226.27 947.06 227.66 943.48C229.06 939.91 230.95 934.74 232.17 932.01C233.40 929.28 234.83 926.43 235.83 925.30C236.84 924.17 238.04 923.68 238.86 924.47C239.68 925.27 240.72 927.79 241.31 930.62C241.90 933.45 242.38 938.89 242.78 943.33C243.19 947.76 243.77 954.69 244.02 960.18C244.28 965.67 244.51 971.67 244.47 979.91C244.43 988.15 244.02 1008.08 243.77 1015.12C243.51 1022.16 243.09 1024.14 242.77 1026.87C242.44 1029.59 241.97 1032.06 241.61 1033.30C241.26 1034.55 240.72 1035.11 240.41 1035.14C240.10 1035.18 239.80 1034.58 239.57 1033.55C239.35 1032.52 239.03 1030.27 238.89 1028.29C238.75 1026.31 238.67 1025.64 238.65 1020.32C238.60 1010.72 238.58 974.80 238.59 964.24C238.60 954.71 238.68 954.81 238.70 949.95C238.71 945.09 238.76 934.72 238.68 931.86C238.66 931.12 238.32 930.17 238.16 930.88C236.44 938.59 228.85 976.81 227.21 983.26C225.66 989.34 226.96 978.34 227.21 973.85C227.45 969.36 228.22 959.55 228.84 953.35C229.45 947.15 230.64 937.11 231.29 932.54C231.94 927.96 232.85 924.03 233.20 922.84C233.52 921.70 233.53 923.39 233.57 924.58C233.66 927.15 234.09 932.16 233.78 939.97C233.47 947.78 231.83 975.36 231.49 976.63C231.15 977.89 231.70 956.43 231.51 948.42C231.32 940.41 230.64 928.67 230.24 923.22C229.84 917.78 229.31 914.91 228.83 912.12C228.35 909.32 227.68 906.03 227.05 904.57C226.41 903.11 225.39 902.20 224.60 902.39C223.80 902.59 222.82 903.07 221.77 905.87C220.27 909.88 216.28 923.34 214.57 929.15C212.86 934.96 211.68 940.10 210.39 944.62C209.10 949.14 207.83 954.20 205.97 959.27C204.12 964.35 199.65 974.99 198.03 978.43C196.68 981.30 195.86 981.49 195.17 982.23C194.48 982.96 193.85 983.25 193.42 983.33C192.98 983.40 192.67 983.51 192.25 982.74C191.82 981.95 190.22 977.71 190.57 978.08C190.93 978.46 193.71 983.92 194.63 985.22C195.54 986.52 196.01 986.60 196.67 986.75C197.33 986.90 198.23 986.86 199.03 986.22C199.83 985.58 200.99 984.08 202.00 982.49C203.01 980.90 204.60 978.19 205.75 975.61C206.90 973.03 207.27 972.25 209.69 965.30C212.27 957.86 220.35 933.35 222.97 926.04C225.30 919.54 226.06 918.62 227.15 916.57C228.25 914.51 229.40 912.79 230.28 912.31C231.16 911.83 232.30 912.12 233.01 913.36C233.72 914.61 234.38 915.64 235.00 920.61C235.62 925.66 236.58 932.62 237.19 947.00C237.79 961.39 238.61 1005.10 239.02 1016.53C239.18 1021.03 239.55 1021.83 239.93 1023.22C240.32 1024.61 240.97 1025.64 241.59 1025.80C242.21 1025.96 243.21 1025.43 244.06 1024.31C244.91 1023.20 246.16 1020.90 247.24 1018.37C248.31 1015.84 249.93 1011.36 251.23 1007.46C252.52 1003.55 253.00 1002.49 255.85 992.34C259.06 980.93 269.24 943.32 272.62 931.39C275.99 919.46 276.71 917.76 278.35 912.82C279.99 907.88 282.16 901.82 283.53 898.46C284.91 895.10 286.49 891.87 287.53 890.43C288.56 888.98 289.71 888.50 290.42 888.85C291.14 889.20 291.93 889.90 292.28 892.77C292.75 896.66 293.56 906.37 293.54 914.79C293.53 923.21 292.63 941.00 292.19 948.92C291.76 956.83 291.55 959.63 290.67 967.57C289.79 975.52 287.57 993.60 286.31 1001.91C285.05 1010.22 283.07 1019.14 282.27 1022.99C281.61 1026.09 281.28 1026.73 280.93 1027.55C280.57 1028.38 280.11 1028.67 279.89 1028.50C279.67 1028.34 279.44 1027.86 279.44 1026.46C279.44 1022.74 279.45 1010.98 279.89 1003.65C280.32 996.31 281.00 987.92 282.34 977.55C283.68 967.18 287.59 942.47 288.84 934.53C289.88 927.90 290.15 926.92 290.64 924.62C291.12 922.32 291.74 920.13 292.08 919.21C292.33 918.52 292.79 917.75 292.88 918.47C293.10 920.22 293.55 924.86 293.53 930.90C293.52 936.94 293.19 949.11 292.77 958.74C292.36 968.38 291.49 984.77 290.77 995.13C290.05 1005.50 288.60 1021.25 287.96 1027.86C287.32 1034.47 286.93 1036.33 286.50 1039.19C286.07 1042.05 284.49 1052.12 285.11 1046.93C285.73 1041.74 288.42 1020.04 290.63 1004.59C292.84 989.14 297.52 957.39 299.85 943.93C302.18 930.48 304.82 920.21 306.17 914.88C307.31 910.36 308.17 909.48 308.85 908.42C309.54 907.36 310.23 907.35 310.71 907.84C311.20 908.32 311.71 909.96 312.09 911.66C312.46 913.36 312.86 914.85 313.22 919.15C313.59 923.45 314.25 933.51 314.52 940.30C314.79 947.09 314.96 959.10 315.01 964.41C315.05 969.73 315.04 971.39 314.80 975.73C314.56 980.08 313.84 989.84 313.41 993.40C312.99 996.97 312.00 1001.78 311.98 999.51C311.97 997.23 312.49 985.68 313.34 978.21C314.20 970.75 316.00 957.78 317.69 949.74C319.38 941.70 323.03 929.55 324.63 924.63C326.24 919.71 327.37 918.65 328.38 916.96C329.39 915.28 330.57 913.88 331.37 913.38C332.17 912.89 333.07 913.01 333.69 913.66C334.31 914.32 334.98 914.82 335.51 917.76C336.04 920.75 336.97 927.95 337.26 933.62C337.54 939.30 337.46 950.56 337.43 955.56C337.40 960.57 337.48 962.33 337.05 966.99C336.63 971.66 335.35 982.14 334.59 986.66C333.83 991.19 332.37 996.49 331.98 997.16C331.59 997.84 331.77 993.59 332.00 991.18C332.23 988.78 332.25 987.79 333.52 981.12C335.59 970.23 343.52 929.79 345.83 918.59C347.51 910.41 348.02 909.42 348.89 906.45C349.76 903.48 350.85 900.32 351.62 898.79C352.38 897.26 353.35 896.36 354.00 896.24C354.64 896.12 355.39 896.88 355.89 897.99C356.39 899.10 356.95 901.53 357.30 903.64C357.65 905.75 358.00 907.50 358.23 912.04C358.46 916.58 358.75 928.87 358.84 933.91C358.94 938.94 358.95 940.41 358.84 945.61C358.74 950.80 358.45 963.51 358.16 968.55C357.86 973.60 357.58 974.98 356.88 979.24C356.19 983.51 354.34 993.45 353.52 996.99C352.70 1000.52 351.72 1003.60 351.41 1002.81C351.09 1002.02 351.12 996.93 351.41 991.72C351.69 986.51 352.13 977.46 353.30 968.10C354.47 958.75 357.76 937.56 359.22 929.34C360.67 921.12 362.30 914.92 363.01 913.30C363.71 911.68 363.74 916.94 363.90 918.55C364.06 920.16 364.01 920.38 364.07 924.04C364.23 934.52 364.61 976.99 364.95 988.42C365.18 996.34 365.87 998.32 366.28 1000.23C366.52 1001.33 367.21 1001.44 367.69 1001.16C368.17 1000.88 368.86 999.91 369.48 998.37C370.11 996.83 370.73 996.00 371.86 990.90C374.23 980.18 381.56 943.05 385.30 926.90C389.05 910.74 394.73 890.46 396.81 883.20C397.78 879.82 398.61 879.14 399.19 878.50C399.77 877.85 400.54 877.87 400.67 878.89C400.99 881.36 401.32 890.45 401.32 894.99C401.32 899.54 401.35 901.54 400.67 909.18C399.99 916.82 397.83 937.52 396.77 945.94C395.72 954.36 395.17 957.47 393.62 965.30C392.07 973.13 388.31 990.48 386.46 998.14C384.60 1005.80 382.24 1013.12 381.28 1016.37C380.58 1018.73 380.34 1019.33 380.05 1019.84C379.82 1020.25 379.33 1020.27 379.35 1019.80C379.45 1016.79 379.39 1009.48 380.70 999.76C382.01 990.04 386.44 964.28 388.07 954.98C389.71 945.68 390.03 944.78 391.58 937.77C393.12 930.75 396.88 913.90 398.38 908.20C399.88 902.50 400.78 901.54 401.58 899.77C402.39 898.00 403.17 896.64 403.72 896.40C404.28 896.16 404.88 897.07 405.30 898.17C405.72 899.28 406.24 899.97 406.51 903.78C406.92 909.81 407.93 928.47 408.09 938.38C408.24 948.29 407.95 960.86 407.53 969.82C407.12 978.78 405.97 991.45 405.34 998.12C404.72 1004.78 403.34 1014.67 403.37 1014.25C403.39 1013.83 404.95 999.80 405.54 995.30C406.12 990.80 406.03 990.84 407.26 984.25C408.50 977.67 412.18 958.21 413.76 951.40C415.34 944.59 416.95 941.00 417.79 938.86C418.36 937.41 418.97 937.28 419.38 937.15C419.79 937.02 420.31 937.08 420.51 938.01C420.90 939.70 421.69 944.02 421.93 948.44C422.16 952.85 422.52 956.81 422.10 967.42C421.68 978.04 419.25 1013.46 419.13 1019.20C419.01 1024.95 420.66 1009.78 421.30 1005.73C421.95 1001.69 422.04 1001.24 423.44 992.25C425.32 980.22 431.92 937.10 433.83 925.49C435.02 918.29 435.53 917.33 436.22 914.81C436.90 912.29 437.84 909.88 438.43 908.69C439.02 907.49 439.74 906.84 440.15 906.83C440.56 906.82 440.90 907.58 441.15 908.61C441.40 909.65 441.74 911.79 441.84 913.73C441.93 915.66 441.85 918.83 441.81 921.54C441.76 924.25 441.96 926.44 441.56 931.79C441.16 937.14 439.78 951.46 439.15 957.21C438.52 962.97 438.27 964.89 437.35 970.13C436.43 975.38 434.25 987.00 433.02 992.17C431.79 997.33 429.89 1002.59 429.15 1004.58C428.82 1005.44 428.28 1005.68 428.05 1005.42C427.82 1005.15 427.43 1004.57 427.59 1002.82C428.02 998.21 430.07 980.88 430.91 974.70C431.75 968.51 431.98 967.41 433.22 961.56C434.45 955.71 437.24 942.35 439.12 935.71C440.99 929.07 444.25 920.64 445.71 917.28C447.04 914.20 447.95 913.90 448.83 913.33C449.70 912.76 450.81 912.77 451.54 913.47C452.26 914.16 453.08 915.94 453.66 917.94C454.23 919.94 454.87 921.28 455.40 926.79C455.92 932.30 456.88 939.19 457.15 954.66C457.42 970.12 457.18 1017.83 457.19 1029.89C457.20 1033.34 457.17 1034.24 457.23 1035.06C457.25 1035.39 457.55 1035.70 457.60 1035.38C459.62 1022.67 468.07 966.00 470.71 950.32C472.93 937.16 474.32 934.25 475.20 930.81C475.83 928.39 476.26 927.92 476.64 927.34C477.01 926.77 477.59 926.25 477.71 926.99C478.65 932.57 481.97 958.36 482.92 964.52C483.29 966.96 483.71 967.35 484.03 968.05C484.36 968.75 484.77 969.15 485.09 969.17C485.42 969.18 485.88 968.92 486.20 968.14C486.53 967.37 486.88 966.82 487.26 963.97C487.89 959.27 489.87 943.01 490.42 936.83C490.96 930.66 491.53 920.45 490.90 922.81C490.27 925.17 487.84 939.31 486.20 952.59C484.57 965.86 480.89 1003.29 479.99 1011.31C479.59 1014.80 480.04 1008.14 480.19 1006.04C480.34 1003.95 480.55 1003.15 480.99 997.32C481.89 985.43 484.96 941.08 486.20 926.78C487.45 912.48 488.70 905.69 489.27 902.00C489.35 901.49 489.96 901.64 490.03 902.15C490.29 903.96 490.86 908.97 490.99 914.06C491.13 919.15 491.37 925.79 490.92 936.07C490.48 946.35 488.76 973.53 488.02 982.61C487.28 991.68 486.41 993.97 485.99 996.58C485.61 998.91 485.46 999.38 485.22 1000.04C484.98 1000.69 484.37 1001.76 484.39 1000.94C484.45 998.65 484.53 992.64 485.62 984.76C486.70 976.88 490.36 955.47 491.63 948.39C492.91 941.32 493.36 940.36 494.12 937.60C494.88 934.83 496.03 931.55 496.71 929.93C497.40 928.32 498.09 927.14 498.71 926.83C499.32 926.52 500.29 926.86 500.82 927.89C501.35 928.93 501.80 929.75 502.23 933.72C502.66 937.74 503.37 946.19 503.70 954.72C504.03 963.25 504.21 983.41 504.45 990.59C504.69 997.77 505.09 1000.67 505.30 1002.58C505.37 1003.20 505.76 1003.95 505.86 1003.34C506.26 1000.77 507.28 993.83 507.99 985.49C508.71 977.16 509.91 946.51 510.61 947.77C511.32 949.03 512.14 984.85 512.70 993.90C513.26 1002.95 513.90 1005.79 514.35 1008.08C514.57 1009.22 515.20 1009.64 515.69 1009.20C516.18 1008.76 516.96 1008.07 517.60 1005.17C518.45 1001.29 519.63 994.93 521.39 983.31C523.14 971.69 527.81 937.38 529.30 927.71C530.22 921.76 530.82 919.34 531.32 918.90C531.82 918.46 532.29 921.72 532.63 924.77C532.97 927.83 533.46 929.59 533.59 939.29C533.73 949.74 533.55 986.12 533.54 994.48C533.54 994.81 533.47 995.30 533.50 994.97C533.99 989.80 535.72 969.32 536.77 959.96C537.83 950.60 539.72 938.20 540.54 932.58C541.36 926.96 541.78 924.90 542.26 922.50C542.75 920.10 543.39 917.63 543.78 916.58C544.16 915.61 544.61 915.08 544.92 915.51C545.24 915.95 545.66 917.60 545.89 919.48C546.11 921.36 546.38 922.74 546.44 928.03C546.51 933.33 546.55 946.15 546.33 954.76C546.11 963.37 545.62 976.29 544.98 985.43C544.34 994.57 542.52 1011.28 542.07 1015.69C542.01 1016.25 541.89 1015.41 541.94 1014.85C542.33 1010.57 543.79 994.20 544.69 987.12C545.59 980.04 546.90 972.85 547.93 967.63C548.96 962.42 550.76 955.38 551.55 952.36C552.35 949.33 552.73 948.39 553.25 947.47C553.76 946.54 554.48 946.08 554.97 946.18C555.46 946.28 556.15 946.51 556.49 948.11C557.03 950.67 558.15 954.16 558.59 963.23C559.03 972.30 559.16 1001.90 559.42 1008.58C559.45 1009.39 560.09 1008.57 560.35 1007.80C560.70 1006.77 561.00 1005.80 561.76 1001.68C563.48 992.34 569.50 956.82 571.80 945.53C574.10 934.24 576.04 929.76 577.09 926.40C577.82 924.05 578.34 923.61 578.78 923.11C579.22 922.62 579.94 922.27 580.02 923.09C580.22 925.11 580.37 931.91 580.08 936.58C579.79 941.25 579.78 942.51 578.08 954.24C576.34 966.18 570.08 1006.40 568.54 1016.15C568.20 1018.26 567.48 1021.38 567.82 1019.27C569.37 1009.53 576.48 964.60 578.92 951.19C581.35 937.78 582.95 934.05 584.06 929.86C585.17 925.67 585.64 924.89 586.31 923.27C586.98 921.65 587.95 919.83 588.51 919.07C589.08 918.30 589.65 918.07 590.10 918.17C590.55 918.27 591.11 918.82 591.51 919.73C591.91 920.63 592.37 921.13 592.75 924.20C593.15 927.44 593.97 933.03 594.16 941.36C594.36 949.68 594.19 972.17 594.05 979.69C593.91 987.22 593.63 987.11 593.22 991.50C592.81 995.89 591.01 1010.67 591.33 1008.94C591.65 1007.21 593.56 990.99 595.37 979.96C597.17 968.94 601.39 945.41 603.38 935.43C605.37 925.45 607.52 917.56 608.66 913.45C609.71 909.66 610.40 909.06 610.97 908.02C611.54 906.97 612.01 905.62 612.46 906.49C612.90 907.37 613.71 908.86 613.93 913.85C614.19 919.96 614.26 940.16 614.21 947.21C614.15 954.26 614.25 953.12 613.54 960.87C612.84 968.62 609.95 994.88 609.52 998.88C609.09 1002.88 609.94 992.54 610.65 987.54C611.37 982.53 612.90 972.99 614.27 965.50C615.65 958.01 618.15 945.29 619.84 937.60C621.52 929.91 624.31 918.79 625.50 914.23C626.70 909.67 627.19 908.63 627.81 907.20C628.42 905.77 629.09 904.85 629.57 904.71C630.05 904.58 630.81 904.88 631.01 906.30C631.40 909.04 631.99 918.54 632.15 923.03C632.31 927.51 632.42 929.57 632.06 936.19C631.69 942.82 630.36 960.38 629.74 967.20C629.11 974.02 628.76 976.26 627.90 981.68C627.04 987.10 624.98 998.71 624.02 1003.32C623.07 1007.94 621.99 1012.85 621.54 1012.43C621.08 1012.02 620.83 1005.68 620.98 1000.58C621.13 995.48 621.72 985.60 622.56 978.46C623.40 971.31 625.60 958.40 626.56 952.94C627.53 947.48 627.79 945.79 629.02 942.06C630.25 938.34 633.57 930.46 634.79 928.13C635.68 926.44 636.47 926.50 637.17 926.53C637.87 926.57 638.93 927.21 639.48 928.37C640.04 929.53 640.41 930.26 640.86 934.27C641.32 938.29 642.33 948.18 642.55 955.19C642.77 962.20 642.57 973.95 642.33 980.98C642.10 988.01 641.45 997.19 640.98 1002.05C640.51 1006.91 639.61 1011.58 639.21 1013.38C639.05 1014.12 638.35 1014.80 638.31 1014.05C638.18 1011.33 637.87 1002.10 638.33 995.21C638.79 988.32 639.77 978.40 641.37 968.12C642.97 957.83 647.50 934.09 649.00 926.64C650.12 921.08 650.69 920.20 651.36 918.46C652.03 916.72 652.95 915.25 653.49 915.05C654.04 914.84 654.71 915.42 654.98 917.08C655.44 919.89 656.30 927.31 656.56 933.77C656.82 940.22 656.77 950.97 656.69 960.12C656.61 969.26 656.29 987.82 656.02 994.75C655.76 1001.68 655.01 1006.61 654.91 1006.35C654.82 1006.08 654.97 998.53 655.42 993.00C655.87 987.47 656.49 980.12 657.90 969.47C659.32 958.82 663.64 929.74 664.85 922.02C665.28 919.26 665.71 918.50 665.96 917.98C666.17 917.52 666.45 918.00 666.50 918.50C666.72 920.59 667.22 926.31 667.43 931.93C667.64 937.55 667.93 947.11 667.91 955.96C667.89 964.81 667.56 983.68 667.32 990.93C667.07 998.17 665.45 1010.47 666.28 1004.27C667.11 998.07 671.61 959.16 672.86 949.59C673.66 943.43 673.72 944.27 674.60 940.44C675.48 936.60 677.77 927.21 678.71 924.03C679.65 920.86 680.23 920.17 680.86 919.28C681.49 918.40 682.32 917.78 682.88 918.12C683.45 918.46 684.16 919.85 684.65 921.54C685.14 923.22 685.56 924.08 686.16 929.35C687.52 941.36 692.29 989.75 693.73 1001.63C694.32 1006.41 695.35 1007.64 695.80 1008.56C696.17 1009.31 696.44 1008.45 696.75 1007.72C697.05 1006.99 697.30 1006.42 697.82 1003.68C698.69 999.12 701.48 983.08 702.52 977.28C703.57 971.48 703.23 972.57 704.77 964.99C706.32 957.41 711.23 933.76 712.81 926.72C714.13 920.85 714.63 919.99 715.30 918.04C715.31 918.01 715.32 917.99 715.32 917.96"/><path fill="none" stroke="#ffd873" stroke-opacity="0.5" stroke-width="20.0" stroke-linecap="round" stroke-linejoin="round" d="M721.12 922.63C721.49 926.33 722.22 931.52 722.52 940.93C722.83 950.42 722.93 979.14 723.13 985.82C723.14 986.33 723.68 985.99 723.81 985.51C724.20 984.06 725.22 979.01 725.71 976.21C726.19 973.40 726.32 973.10 727.02 966.83C727.72 960.66 729.41 944.92 731.01 929.99"/><path fill="none" stroke="#ffd873" stroke-opacity="0.5" stroke-width="20.0" stroke-linecap="round" stroke-linejoin="round" d="M735.29 932.96C734.44 945.83 733.47 959.87 733.10 965.95C732.55 974.96 732.48 977.34 732.47 979.48C732.47 980.08 732.77 980.43 733.03 980.19C733.29 979.96 733.80 979.06 734.20 977.93C734.60 976.80 734.73 976.18 735.69 972.67C737.17 967.23 741.58 950.63 744.74 939.06"/><path fill="none" stroke="#ffd873" stroke-opacity="0.5" stroke-width="20.0" stroke-linecap="round" stroke-linejoin="round" d="M752.46 943.64C752.40 945.97 752.35 948.14 752.31 950.01C752.06 961.16 751.08 982.60 750.91 988.34C750.91 988.55 751.21 988.46 751.23 988.24C751.64 981.90 752.86 957.90 753.72 944.35"/><path fill="none" stroke="#ffd873" stroke-opacity="0.5" stroke-width="20.0" stroke-linecap="round" stroke-linejoin="round" d="M765.71 950.67C766.64 962.80 767.80 979.46 768.28 985.39C768.73 991.01 768.96 991.59 769.17 993.81C769.38 996.02 769.35 998.53 769.66 1000.17C769.97 1001.81 770.65 1004.91 771.24 1004.72C771.82 1004.52 772.99 1000.76 773.58 998.86C774.16 996.95 774.30 996.62 775.12 992.02C776.13 986.31 778.99 969.29 780.98 957.59"/><path fill="none" stroke="#ffd873" stroke-opacity="0.5" stroke-width="20.0" stroke-linecap="round" stroke-linejoin="round" d="M789.53 960.96C789.56 961.31 789.60 961.64 789.62 961.93C790.07 966.36 790.07 966.63 790.48 969.79C790.89 972.94 791.87 980.40 792.34 982.97C792.80 985.54 793.21 986.13 793.58 986.94C793.95 987.75 794.42 988.43 794.79 988.39C795.15 988.34 795.59 987.80 796.02 986.64C796.44 985.47 796.94 984.71 797.61 980.61C798.11 977.59 799.00 971.33 799.96 964.59"/><path fill="none" stroke="#ffd873" stroke-opacity="0.5" stroke-width="20.0" stroke-linecap="round" stroke-linejoin="round" d="M816.11 969.25C816.07 974.42 815.99 976.94 815.57 981.98C815.09 987.72 813.76 999.99 812.93 1005.17C812.11 1010.34 810.67 1014.61 810.09 1016.47C809.80 1017.42 809.18 1018.55 809.10 1017.57C808.96 1015.83 808.53 1011.48 809.19 1004.89C809.85 998.31 812.20 981.73 813.48 973.67C813.73 972.06 814.01 970.42 814.29 968.78"/><path fill="none" stroke="#ffd873" stroke-opacity="0.5" stroke-width="20.0" stroke-linecap="round" stroke-linejoin="round" d="M833.30 972.98C833.67 974.68 833.99 976.07 834.21 977.01C834.86 979.72 835.38 979.95 835.90 980.84C836.42 981.73 837.09 982.60 837.68 982.95C838.28 983.31 839.17 983.38 839.86 983.20C840.54 983.02 841.25 983.33 842.23 981.76C843.13 980.33 844.37 979.23 846.02 974.95"/><path fill="none" stroke="#ffd873" stroke-opacity="0.5" stroke-width="20.0" stroke-linecap="round" stroke-linejoin="round" d="M872.50 977.00C872.48 980.95 872.41 984.59 872.34 987.66C872.19 994.87 869.75 1011.35 871.27 1008.15C872.41 1005.76 876.45 989.54 879.65 977.09"/><path fill="none" stroke="#ffd873" stroke-opacity="0.5" stroke-width="20.0" stroke-linecap="round" stroke-linejoin="round" d="M917.30 974.31C917.52 976.61 917.72 978.56 917.87 979.89C918.48 985.17 918.82 985.72 919.33 987.73C919.83 989.74 920.62 992.08 921.24 993.29C921.86 994.50 922.71 995.47 923.45 995.78C924.20 996.08 925.31 995.94 926.20 995.33C927.09 994.72 928.34 993.27 929.37 991.71C930.41 990.16 931.15 989.71 933.09 984.94C934.25 982.09 936.34 976.56 938.74 970.21"/><path fill="none" stroke="#ffd873" stroke-opacity="0.5" stroke-width="20.0" stroke-linecap="round" stroke-linejoin="round" d="M973.65 959.27C973.86 961.12 974.04 962.65 974.18 963.70C974.66 967.51 974.96 968.02 975.35 969.34C975.73 970.66 976.25 971.93 976.75 972.51C977.24 973.09 977.99 973.42 978.68 973.18C979.36 972.93 980.46 971.94 981.33 970.88C982.20 969.82 982.79 969.53 984.47 966.11C985.71 963.58 988.47 957.58 991.24 951.56"/><path fill="none" stroke="#ffd873" stroke-opacity="0.5" stroke-width="20.0" stroke-linecap="round" stroke-linejoin="round" d="M1006.37 943.60C1007.25 949.76 1009.94 971.97 1010.79 977.76C1011.24 980.80 1011.60 981.23 1012.02 982.21C1012.44 983.19 1013.15 983.97 1013.61 984.27C1014.08 984.58 1014.48 985.01 1015.12 984.24C1015.93 983.25 1017.17 982.05 1019.02 977.72C1020.86 973.38 1026.05 958.02 1027.41 955.35C1028.76 952.68 1027.99 958.29 1028.06 959.91C1028.12 961.53 1028.12 962.81 1027.85 966.14C1027.59 969.48 1026.69 978.71 1026.30 982.15C1025.91 985.60 1025.60 987.42 1025.25 989.10C1024.91 990.78 1024.31 992.60 1023.98 993.36C1023.65 994.12 1023.30 994.97 1023.05 994.18C1022.63 992.88 1021.91 991.09 1021.19 984.68C1020.47 978.24 1018.89 957.87 1018.21 951.25C1017.53 944.63 1017.22 943.23 1016.65 940.54C1016.46 939.66 1016.24 938.73 1016.01 937.83"/><path fill="none" stroke="#ffd873" stroke-opacity="0.5" stroke-width="20.0" stroke-linecap="round" stroke-linejoin="round" d="M999.70 947.27C998.21 950.19 997.03 952.48 993.18 961.78C987.91 974.48 970.12 1019.04 965.44 1030.26C963.60 1034.68 962.76 1035.41 961.97 1036.55C961.18 1037.70 960.56 1038.20 960.18 1037.89C959.81 1037.57 959.59 1035.96 959.48 1034.47C959.36 1032.98 959.02 1031.93 959.40 1027.96C959.79 1023.99 961.31 1012.74 962.07 1008.01C962.82 1003.28 963.08 1001.50 964.45 996.43C965.82 991.36 969.71 978.79 971.22 974.21C972.74 969.64 973.22 968.53 974.55 965.93C975.87 963.33 978.90 958.44 980.06 956.88C980.17 956.74 980.27 956.62 980.37 956.51"/><path fill="none" stroke="#ffd873" stroke-opacity="0.5" stroke-width="20.0" stroke-linecap="round" stroke-linejoin="round" d="M982.82 955.44C983.12 955.41 983.40 955.50 983.75 955.93C984.30 956.59 985.40 959.38 985.90 959.98C986.38 960.57 986.88 959.88 987.04 959.91C987.20 959.95 987.02 960.01 986.97 960.21C985.37 966.33 978.98 992.20 976.40 1000.69C973.82 1009.19 971.29 1013.67 969.77 1016.83C968.25 1020.00 967.14 1020.87 966.25 1021.80C965.36 1022.72 964.51 1023.32 963.83 1023.00C963.15 1022.69 962.27 1021.43 961.74 1019.69C961.20 1017.96 960.69 1016.91 960.25 1011.45C959.81 1005.99 959.05 995.25 958.78 983.29C958.68 978.88 958.62 972.04 958.59 964.66"/><path fill="none" stroke="#ffd873" stroke-opacity="0.5" stroke-width="20.0" stroke-linecap="round" stroke-linejoin="round" d="M926.00 972.87C924.75 976.91 923.68 980.35 922.87 982.83C918.41 996.55 915.95 1001.91 914.30 1006.19C912.93 1009.74 912.47 1010.52 911.86 1011.35C911.25 1012.18 910.59 1012.41 910.21 1011.75C909.83 1011.09 909.48 1009.05 909.32 1006.95C909.16 1004.85 909.20 1000.93 909.16 997.77C909.13 994.62 908.85 993.82 909.09 985.92C909.16 983.51 909.29 979.75 909.44 975.35"/><path fill="none" stroke="#ffd873" stroke-opacity="0.5" stroke-width="20.0" stroke-linecap="round" stroke-linejoin="round" d="M902.56 976.04C901.42 982.92 900.48 988.68 899.93 992.16C897.84 1005.38 898.00 1008.82 897.69 1012.11C897.56 1013.45 897.62 1014.39 897.87 1014.12C898.12 1013.84 898.82 1012.98 899.35 1010.30C899.91 1007.46 900.99 1000.82 901.60 995.24C902.14 990.26 902.75 983.81 903.23 975.98"/><path fill="none" stroke="#ffd873" stroke-opacity="0.5" stroke-width="20.0" stroke-linecap="round" stroke-linejoin="round" d="M914.62 974.70C916.10 980.20 919.45 992.88 921.15 997.45C922.90 1002.16 924.50 1003.91 926.15 1005.61C927.79 1007.32 930.17 1008.60 932.11 1008.81C934.05 1009.01 936.89 1008.44 939.07 1006.96C941.26 1005.48 944.44 1002.01 946.70 998.93C948.97 995.85 951.97 990.62 954.19 986.44C956.41 982.26 957.33 980.61 961.49 971.09C962.39 969.02 963.68 965.99 965.18 962.43"/><path fill="none" stroke="#ffd873" stroke-opacity="0.5" stroke-width="20.0" stroke-linecap="round" stroke-linejoin="round" d="M1005.82 943.91C1005.33 948.58 1004.52 954.61 1003.81 959.27C1003.04 964.37 1001.84 971.66 1000.77 976.65C999.70 981.64 998.56 986.52 996.69 992.54C994.81 998.55 990.06 1012.15 988.28 1016.75C986.51 1021.30 985.65 1021.83 984.79 1023.19C983.93 1024.55 983.10 1025.57 982.54 1025.81C981.99 1026.04 981.35 1025.60 981.10 1024.73C980.85 1023.86 980.62 1023.16 980.86 1020.04C981.11 1016.55 981.70 1008.63 982.82 1001.45C983.95 994.26 986.24 982.16 988.34 972.13C989.54 966.39 991.27 958.44 993.04 950.68"/><path fill="none" stroke="#ffd873" stroke-opacity="0.5" stroke-width="20.0" stroke-linecap="round" stroke-linejoin="round" d="M1015.62 938.08C1014.50 960.39 1012.58 994.55 1012.08 1005.26C1011.79 1011.25 1011.88 1012.12 1012.02 1014.26C1012.17 1016.39 1012.56 1018.41 1013.03 1019.49C1013.50 1020.58 1014.43 1021.34 1015.16 1021.48C1015.89 1021.63 1016.96 1021.30 1017.89 1020.46C1018.83 1019.61 1020.29 1017.75 1021.37 1015.84C1022.45 1013.92 1023.10 1013.32 1025.10 1007.69C1027.74 1000.26 1035.97 974.99 1038.99 966.29C1042.02 957.60 1042.28 956.87 1045.25 949.72C1048.21 942.57 1055.77 924.99 1058.75 918.65C1061.72 912.31 1063.38 910.24 1065.09 907.45C1066.81 904.66 1068.84 901.52 1070.20 900.03C1071.56 898.55 1073.14 897.64 1074.16 897.55C1075.18 897.45 1076.33 898.26 1077.02 899.42C1077.71 900.58 1078.14 901.25 1078.75 905.26C1079.38 909.43 1080.66 919.60 1081.22 927.22C1081.79 934.84 1082.29 947.17 1082.52 956.07C1082.75 964.96 1082.70 981.46 1082.75 986.53C1082.78 988.75 1082.78 989.27 1082.90 989.86C1083.03 990.45 1083.24 990.73 1083.59 990.46C1083.95 990.20 1084.51 989.87 1085.24 988.08C1087.50 982.55 1096.15 959.51 1098.64 953.63C1100.12 950.11 1100.95 949.97 1101.81 948.86C1102.66 947.74 1103.56 946.63 1104.32 946.21C1105.08 945.78 1106.12 945.81 1106.86 946.01C1107.61 946.22 1108.03 946.11 1109.27 947.55C1110.72 949.23 1114.98 955.42 1116.53 957.22C1118.07 959.03 1118.60 959.15 1119.55 959.59C1120.50 960.03 1121.81 960.39 1122.86 960.18C1123.91 959.97 1125.43 959.21 1126.55 958.21C1127.68 957.21 1129.25 955.37 1130.38 953.53C1131.51 951.69 1132.97 948.55 1134.07 945.95C1135.18 943.34 1136.07 941.34 1137.73 936.15C1139.39 930.96 1143.84 915.33 1145.12 911.35C1145.54 910.04 1146.15 908.44 1146.29 909.65C1146.42 910.86 1146.27 916.37 1146.01 919.43C1145.75 922.49 1145.13 926.46 1144.56 930.04C1144.00 933.62 1143.48 937.17 1142.24 943.29C1141.01 949.42 1138.31 962.62 1136.33 970.89C1134.35 979.16 1126.75 1000.98 1129.06 998.46C1131.36 995.93 1147.64 961.73 1151.70 954.04C1154.25 949.23 1154.89 948.82 1156.16 947.20C1157.43 945.58 1159.09 943.85 1160.19 943.23C1161.28 942.61 1162.61 942.65 1163.47 943.08C1164.34 943.50 1165.32 944.59 1165.94 946.09C1166.56 947.59 1167.20 950.59 1167.60 953.08C1168.00 955.57 1168.42 959.66 1168.62 962.71C1168.82 965.75 1168.84 967.92 1168.92 973.40C1169.01 978.87 1169.00 994.80 1169.19 999.20C1169.30 1001.65 1169.82 1002.19 1170.19 1002.74C1170.57 1003.28 1171.15 1003.20 1171.70 1002.84C1172.25 1002.48 1173.04 1001.60 1173.84 1000.33C1174.63 999.06 1175.46 998.59 1177.01 994.36C1179.90 986.43 1190.04 956.07 1193.09 947.50C1195.56 940.55 1196.11 939.72 1197.30 937.26C1198.50 934.80 1200.05 932.30 1201.03 931.10C1202.02 929.91 1203.19 929.18 1203.89 929.31C1204.60 929.43 1205.31 930.51 1205.75 931.94C1206.20 933.38 1206.69 934.20 1206.85 938.87C1207.04 944.85 1207.03 965.38 1207.06 971.80C1207.09 978.22 1206.90 978.23 1207.02 981.68C1207.15 985.13 1207.44 996.06 1207.92 994.82C1208.40 993.57 1209.44 978.94 1210.22 973.38C1211.00 967.82 1212.56 960.33 1213.13 957.76C1213.39 956.62 1214.08 955.91 1214.04 956.27C1214.01 956.62 1213.52 958.74 1212.91 960.10C1212.30 961.45 1210.69 964.24 1209.97 965.27C1209.25 966.30 1208.74 966.64 1208.11 966.97C1207.48 967.31 1206.53 967.56 1205.77 967.51C1205.02 967.46 1204.52 967.86 1203.06 966.65C1201.57 965.41 1198.41 962.38 1195.83 959.23C1193.26 956.08 1188.29 948.69 1185.92 945.65C1183.54 942.61 1181.82 940.67 1179.97 938.96C1178.12 937.24 1175.48 935.16 1173.57 934.21C1171.66 933.25 1169.15 932.60 1167.25 932.57C1165.35 932.55 1162.72 933.16 1160.88 934.04C1159.04 934.92 1158.47 934.98 1154.99 938.44C1151.50 941.91 1141.14 953.51 1137.58 957.17C1134.02 960.84 1133.17 961.28 1131.25 962.85C1129.33 964.42 1126.77 966.35 1124.77 967.66C1122.77 968.98 1119.98 970.65 1117.92 971.62C1115.85 972.58 1113.03 973.52 1111.01 974.11C1108.99 974.70 1106.32 975.26 1104.43 975.54C1102.54 975.81 1100.12 975.97 1098.40 975.93C1096.67 975.88 1094.43 975.51 1092.92 975.25C1091.41 974.98 1091.19 975.47 1088.35 974.15C1084.91 972.56 1073.58 966.17 1070.03 964.65C1066.73 963.24 1065.72 964.00 1064.69 964.00C1063.65 964.01 1063.51 964.43 1063.10 964.70C1062.70 964.98 1062.25 965.22 1061.97 965.81C1061.69 966.41 1060.58 970.50 1061.25 968.66C1062.36 965.61 1066.12 953.65 1069.37 945.48C1072.62 937.31 1080.33 919.84 1082.91 914.20C1084.96 909.74 1085.66 909.28 1086.62 907.84C1087.58 906.40 1088.70 905.03 1089.31 904.58C1089.93 904.13 1090.46 904.15 1090.73 904.82C1090.99 905.48 1091.15 907.27 1091.10 909.02C1091.05 910.76 1091.03 912.30 1090.38 916.44C1089.72 920.59 1087.67 932.04 1086.75 936.65C1085.83 941.26 1085.77 942.16 1084.24 947.18C1082.71 952.19 1078.52 964.90 1076.56 970.09C1074.61 975.28 1072.97 978.40 1071.21 981.78C1069.45 985.16 1066.67 989.74 1064.81 992.61C1062.95 995.47 1060.49 998.91 1058.83 1000.86C1057.17 1002.81 1055.11 1004.60 1053.76 1005.59C1052.41 1006.57 1050.82 1007.23 1049.83 1007.43C1048.83 1007.62 1047.86 1007.39 1047.15 1006.88C1046.45 1006.37 1045.67 1005.21 1045.13 1004.02C1044.59 1002.84 1044.06 1001.88 1043.55 998.98C1043.03 996.08 1042.01 987.92 1041.72 984.69C1041.44 981.46 1041.41 980.08 1041.65 977.45C1041.89 974.82 1042.92 969.11 1043.35 967.17C1043.77 965.27 1044.03 965.22 1044.51 964.49C1044.98 963.77 1046.09 962.64 1046.51 962.34C1046.93 962.03 1047.04 961.99 1047.29 962.45C1047.85 963.48 1049.56 967.96 1050.29 969.25C1051.01 970.54 1051.45 970.68 1052.11 971.06C1052.77 971.44 1053.74 971.76 1054.71 971.80C1055.68 971.83 1057.31 971.72 1058.58 971.30C1059.85 970.87 1060.39 970.96 1063.19 968.94C1066.86 966.30 1078.91 956.57 1083.07 953.64C1087.24 950.72 1088.52 950.26 1090.93 949.43C1093.34 948.61 1096.68 948.04 1099.14 948.12C1101.60 948.19 1104.83 948.91 1107.33 949.92C1109.83 950.92 1111.91 952.30 1115.80 954.83C1119.69 957.35 1129.28 964.42 1133.29 966.76C1137.29 969.11 1139.63 969.89 1142.48 970.45C1145.32 971.00 1149.28 971.02 1152.26 970.47C1155.24 969.92 1159.21 968.37 1162.35 966.78C1165.49 965.19 1168.40 963.21 1173.18 959.88C1177.96 956.55 1189.58 947.63 1194.20 944.58C1198.83 941.53 1201.20 940.59 1204.02 939.55C1206.85 938.51 1210.42 937.89 1213.05 937.64C1215.68 937.39 1216.48 936.70 1221.56 937.90C1226.64 939.09 1242.64 944.40 1246.93 945.60C1248.99 946.18 1249.25 946.03 1250.12 945.92C1250.99 945.80 1252.33 945.12 1252.73 944.86C1253.10 944.62 1252.85 944.40 1252.78 944.19C1252.71 943.98 1252.73 943.66 1252.27 943.47C1251.80 943.28 1250.94 942.91 1249.67 942.91C1248.41 942.92 1245.16 943.13 1243.82 943.53C1242.49 943.93 1241.61 944.76 1240.80 945.59C1239.99 946.42 1239.01 947.75 1238.42 949.07C1237.84 950.38 1237.10 951.92 1236.90 954.34C1236.70 956.76 1236.69 962.69 1237.07 965.18C1237.44 967.68 1238.57 969.63 1239.39 970.97C1240.20 972.32 1241.85 973.44 1242.50 974.16C1243.15 974.87 1243.41 975.26 1243.75 975.71C1244.08 976.16 1244.47 976.20 1244.71 977.15C1244.95 978.09 1245.43 984.00 1245.32 982.01C1245.21 980.03 1243.99 969.14 1243.97 963.93C1243.95 958.72 1245.00 949.79 1245.18 947.30"/>
</svg>