<?xml version="1.0" encoding="UTF-8"?>
<!DOCTYPE svg PUBLIC "-//W3C//DTD SVG 1.1//EN" "http://www.w3.org/Graphics/SVG/1.1/DTD/svg11.dtd">
<svg  xmlns="http://www.w3.org/2000/svg" xmlns:xlink="http://www.w3.org/1999/xlink" viewport-fill="none" viewBox="0.0, 0.0, 899.0, 503.0" version="1.1" height="503.0" width="899.0">
<path fill="none" stroke="#000000" stroke-width="1.5" stroke-linecap="round" stroke-linejoin="round" d="M221.50 207.50C222.62 203.38 226.71 186.98 229.00 180.00C231.29 173.02 235.41 164.13 236.79 160.95C237.49 159.35 237.87 159.13 238.24 158.77C238.61 158.41 239.24 157.84 239.25 158.54C239.28 159.82 239.25 163.10 238.41 167.33C237.56 171.56 237.29 173.93 233.63 186.74C229.84 199.99 217.58 240.12 213.14 255.66C208.71 271.20 206.15 281.31 204.05 290.35C201.95 299.40 199.92 310.93 199.14 315.96C198.36 320.99 198.86 321.74 198.86 323.88C198.85 326.03 198.96 328.74 199.12 330.25C199.28 331.76 199.50 332.92 199.93 333.94C200.36 334.95 201.69 336.54 202.00 337.00"/><path fill="none" stroke="#000000" stroke-width="1.5" stroke-linecap="round" stroke-linejoin="round" d="M311.50 159.50C311.33 160.75 312.10 162.51 310.35 167.86C305.09 183.97 283.13 247.58 276.40 266.88C269.67 286.17 267.13 292.06 265.50 296.50"/><path fill="none" stroke="#000000" stroke-width="1.5" stroke-linecap="round" stroke-linejoin="round" d="M205.00 274.00C205.60 273.17 207.13 270.54 209.00 268.50C210.87 266.46 215.14 262.30 217.43 260.42C219.73 258.54 221.99 257.22 224.29 255.99C226.59 254.76 230.19 253.11 232.78 252.22C235.38 251.32 238.88 250.52 241.61 250.04C244.34 249.55 248.24 249.16 251.00 249.00C253.76 248.84 258.65 249.00 260.00 249.00"/><path fill="none" stroke="#000000" stroke-width="1.5" stroke-linecap="round" stroke-linejoin="round" d="M356.50 235.00C355.67 235.38 353.22 236.00 351.00 237.50C348.78 239.00 343.89 242.94 341.71 245.01C339.54 247.07 338.47 248.35 336.51 251.29C334.55 254.23 330.28 261.25 328.65 264.62C327.02 267.99 326.01 272.09 325.68 273.74C325.41 275.09 326.07 275.31 326.44 275.66C326.81 276.00 327.45 276.19 328.14 276.02C328.83 275.85 329.35 275.88 331.04 274.51C334.14 271.98 345.90 261.46 348.81 259.17C349.64 258.51 350.05 258.94 350.39 259.25C350.74 259.55 351.06 259.82 351.11 261.21C351.15 262.73 350.86 267.36 350.72 269.41C350.59 271.47 350.22 273.47 350.22 274.90C350.23 276.33 350.34 278.01 350.76 278.93C351.17 279.84 352.36 280.69 353.00 281.00C353.64 281.31 354.70 281.00 355.00 281.00"/><path fill="none" stroke="#000000" stroke-width="1.5" stroke-linecap="round" stroke-linejoin="round" d="M417.00 266.50C416.50 266.33 414.76 265.10 413.66 265.40C412.56 265.70 409.01 269.79 409.65 268.51C410.30 267.23 415.40 261.14 417.94 256.86C420.49 252.58 421.60 251.59 426.62 239.97C432.74 225.82 453.33 175.61 458.70 162.54C461.34 156.11 461.52 155.67 462.41 152.80C463.30 149.93 464.59 144.58 464.64 143.40C464.68 142.22 463.59 143.83 462.71 144.95C461.82 146.07 460.98 146.68 458.74 150.87C456.45 155.18 450.01 167.95 447.42 173.66C444.83 179.37 443.91 181.60 441.47 188.96C439.03 196.31 433.14 215.22 431.17 222.69C429.20 230.17 428.90 234.27 428.34 238.78C427.78 243.29 427.57 247.53 427.44 252.74C427.31 257.94 427.34 269.79 427.50 273.50C427.62 276.25 428.35 276.90 428.50 277.50"/><path fill="none" stroke="#000000" stroke-width="1.5" stroke-linecap="round" stroke-linejoin="round" d="M532.50 217.50C532.52 216.98 533.12 212.59 532.60 214.00C532.09 215.41 531.99 218.47 529.07 226.89C525.99 235.76 514.62 265.87 512.03 273.19C511.49 274.73 510.77 276.90 511.83 275.64C513.92 273.14 523.23 260.11 525.96 256.52C528.50 253.18 528.66 253.23 530.03 251.72C531.41 250.22 533.03 248.30 535.10 246.50C537.18 244.70 541.92 241.05 543.88 239.73C545.83 238.40 546.95 238.04 548.15 237.68C549.34 237.32 550.85 237.18 551.82 237.32C552.79 237.46 553.80 237.39 554.61 238.62C555.43 239.85 556.83 243.77 557.25 245.50C557.68 247.23 557.77 247.07 557.47 250.18C557.07 254.28 554.92 268.93 554.60 272.86C554.41 275.23 554.67 275.51 555.33 276.35C555.99 277.20 558.45 278.18 559.00 278.50"/><path fill="none" stroke="#000000" stroke-width="1.5" stroke-linecap="round" stroke-linejoin="round" d="M610.00 247.50C610.91 245.97 615.77 238.61 616.09 237.27C616.42 235.93 613.96 237.42 612.19 238.55C610.42 239.68 606.99 242.25 604.29 244.79C601.59 247.33 596.42 252.88 594.19 255.49C591.95 258.10 591.10 259.34 589.40 262.17C587.71 265.00 584.14 271.23 582.89 274.37C581.63 277.51 581.15 281.54 581.03 283.10C580.93 284.40 581.59 284.57 582.07 284.76C582.56 284.94 583.48 284.71 584.25 284.34C585.02 283.96 586.18 283.15 587.21 282.25C588.24 281.34 589.16 280.73 591.12 278.29C593.08 275.85 597.52 269.99 600.29 265.99C603.06 262.00 606.87 256.36 609.60 251.64C612.33 246.91 617.17 237.07 618.50 234.50"/><path fill="none" stroke="#000000" stroke-width="1.5" stroke-linecap="round" stroke-linejoin="round" d="M664.00 158.50C663.85 159.48 664.26 161.53 663.00 165.00C661.74 168.47 658.46 173.77 655.58 181.66C652.69 189.55 647.63 204.21 643.80 217.61C639.96 231.01 632.07 262.99 630.00 271.00"/><path fill="none" stroke="#000000" stroke-width="1.5" stroke-linecap="round" stroke-linejoin="round" d="M624.00 244.00C624.22 243.18 624.84 239.95 625.50 238.50C626.16 237.05 627.43 235.26 628.38 234.33C629.33 233.39 630.62 232.71 631.83 232.26C633.04 231.81 634.95 231.44 636.44 231.34C637.93 231.24 639.45 230.95 641.78 231.57C644.12 232.20 650.47 234.91 652.00 235.50"/><path fill="none" stroke="#000000" stroke-width="1.5" stroke-linecap="round" stroke-linejoin="round" d="M681.00 258.00C681.17 257.12 680.34 254.73 682.14 252.14C683.94 249.55 691.93 242.11 692.98 240.72C694.04 239.33 690.69 241.70 689.20 242.87C687.70 244.04 685.50 245.88 683.02 248.51C680.53 251.15 674.52 258.15 672.61 260.47C670.84 262.62 670.82 262.73 670.31 263.96C669.80 265.19 669.18 267.88 669.23 268.68C669.29 269.48 669.63 269.40 670.68 269.30C671.82 269.19 674.41 268.83 676.85 267.96C679.30 267.09 685.48 264.17 687.00 263.50"/><path fill="none" stroke="#000000" stroke-width="1.5" stroke-linecap="round" stroke-linejoin="round" d="M743.00 233.50C742.35 233.22 739.99 231.91 738.65 231.65C737.31 231.38 735.30 231.28 734.06 231.73C732.83 232.18 731.11 233.95 730.43 234.66C729.75 235.37 729.57 235.59 729.54 236.47C729.51 237.34 728.61 238.85 730.23 240.47C731.84 242.10 738.47 245.94 740.30 247.28C741.92 248.47 741.99 248.69 742.43 249.42C742.86 250.15 743.48 250.71 743.22 252.13C742.96 253.54 742.44 256.64 740.70 258.86C738.96 261.08 733.82 265.18 731.62 266.92C729.42 268.66 727.78 269.55 726.04 270.46C724.29 271.38 720.91 272.62 720.00 273.00"/><path fill="none" stroke="#000000" stroke-width="1.5" stroke-linecap="round" stroke-linejoin="round" d="M279.00 402.00C278.77 401.55 278.18 399.91 277.50 399.00C276.82 398.09 275.59 396.76 274.46 395.96C273.34 395.17 271.53 394.20 270.02 393.68C268.51 393.17 266.20 392.68 264.38 392.54C262.55 392.40 259.88 392.46 257.86 392.78C255.83 393.09 252.96 393.84 250.90 394.63C248.85 395.42 246.11 396.80 244.15 398.06C242.20 399.32 239.60 401.36 237.84 403.05C236.08 404.74 233.86 407.32 232.42 409.33C230.98 411.35 229.24 414.30 228.24 416.47C227.24 418.65 226.28 421.69 225.77 423.84C225.26 425.98 224.85 428.97 224.85 430.75C224.86 432.54 225.21 434.58 225.78 435.75C226.35 436.92 227.55 438.11 228.63 438.55C229.72 439.00 231.52 439.12 233.03 438.70C234.55 438.29 236.91 437.05 238.72 435.77C240.54 434.48 242.24 433.29 245.14 430.13C248.04 426.96 255.32 418.16 258.05 414.68C260.79 411.19 261.52 409.59 263.35 406.91C265.18 404.23 269.05 398.34 270.26 396.80C270.74 396.20 271.39 395.93 271.41 396.70C271.45 397.97 271.24 401.38 270.49 405.29C269.73 409.19 268.57 415.43 266.38 422.73C264.19 430.04 259.64 444.90 255.88 454.02C252.13 463.13 244.80 477.06 241.37 483.49C237.94 489.92 234.86 494.19 233.00 496.89C231.14 499.59 229.60 500.81 229.00 501.50"/><path fill="none" stroke="#000000" stroke-width="1.5" stroke-linecap="round" stroke-linejoin="round" d="M343.50 391.00C342.45 391.60 339.22 392.92 336.50 395.00C333.78 397.08 328.27 401.91 325.34 404.88C322.40 407.85 319.94 410.75 316.92 414.82C313.91 418.89 307.67 428.06 305.26 432.01C302.84 435.97 301.37 439.65 300.81 441.19C300.52 442.00 300.75 442.58 301.53 442.26C302.30 441.94 303.52 441.78 305.97 439.08C308.49 436.31 312.74 431.58 318.29 423.77C323.85 415.96 339.29 392.67 343.00 387.00C343.36 386.44 343.00 386.15 343.00 386.00"/><path fill="none" stroke="#000000" stroke-width="1.5" stroke-linecap="round" stroke-linejoin="round" d="M373.50 333.50C372.66 337.06 369.34 349.98 367.92 357.23C366.49 364.49 365.02 374.36 364.00 381.89C362.98 389.42 361.70 399.78 361.10 407.45C360.50 415.11 360.17 429.17 360.00 433.00"/><path fill="none" stroke="#000000" stroke-width="1.5" stroke-linecap="round" stroke-linejoin="round" d="M349.50 418.00C350.27 415.68 353.21 405.66 354.61 402.54C356.00 399.41 357.41 398.34 358.80 397.19C360.20 396.04 362.31 395.26 363.91 394.85C365.50 394.44 367.75 394.19 369.42 394.44C371.09 394.69 373.37 395.67 375.04 396.50C376.70 397.33 378.93 398.80 380.50 400.00C382.07 401.20 384.75 403.83 385.50 404.50"/><path fill="none" stroke="#000000" stroke-width="1.5" stroke-linecap="round" stroke-linejoin="round" d="M483.50 392.00C482.70 391.89 479.64 391.22 478.14 391.24C476.64 391.25 475.14 391.29 473.51 392.09C471.87 392.89 470.13 393.42 467.24 396.55C464.35 399.68 457.03 409.03 454.24 412.95C451.46 416.86 450.15 419.70 448.68 422.64C447.22 425.57 445.49 429.70 444.48 432.50C443.47 435.30 442.40 438.99 441.92 441.29C441.44 443.59 441.17 446.33 441.26 447.82C441.34 449.30 441.88 450.67 442.51 451.21C443.15 451.75 444.38 451.84 445.49 451.41C446.59 450.99 448.38 449.80 449.89 448.37C451.40 446.93 452.52 446.11 455.54 441.86C458.57 437.60 465.41 427.74 470.05 419.99C474.68 412.25 482.77 397.12 486.46 390.20C490.14 383.29 491.51 380.41 494.62 373.89C497.73 367.37 504.49 353.05 507.19 346.73C509.90 340.42 512.63 332.48 512.68 331.78C512.72 331.07 508.82 339.07 507.51 342.01C506.20 344.96 505.93 345.01 503.93 351.39C501.75 358.37 495.30 379.11 492.98 388.51C490.65 397.90 489.28 408.64 488.43 414.01C487.58 419.38 487.61 418.31 487.32 424.31C487.03 430.31 486.62 449.55 486.50 454.00"/><path fill="none" stroke="#000000" stroke-width="1.5" stroke-linecap="round" stroke-linejoin="round" d="M503.00 424.00C507.04 419.83 523.67 402.98 529.94 396.21C536.21 389.44 543.83 379.80 544.82 378.88C545.81 377.96 539.41 385.65 536.53 390.08C533.64 394.51 528.01 404.24 525.58 408.42C523.15 412.60 522.12 414.25 520.35 417.95C518.58 421.64 514.88 430.18 513.79 433.07C512.80 435.73 513.11 436.32 513.10 437.27C513.09 438.22 513.31 439.10 513.71 439.40C514.11 439.70 514.51 439.81 515.75 439.26C518.27 438.15 528.29 433.09 530.50 432.00"/><path fill="none" stroke="#000000" stroke-width="1.5" stroke-linecap="round" stroke-linejoin="round" d="M582.50 340.50C581.35 345.24 577.31 359.90 574.84 372.12C572.36 384.35 567.33 414.52 566.00 422.00"/><path fill="none" stroke="#000000" stroke-width="1.5" stroke-linecap="round" stroke-linejoin="round" d="M605.00 411.50C605.02 411.06 603.90 410.06 605.16 408.54C607.46 405.78 616.56 397.22 620.32 393.06C624.07 388.91 628.22 383.44 630.21 380.83C632.19 378.22 632.83 376.97 633.54 375.67C634.26 374.37 634.84 372.85 634.97 372.15C635.11 371.46 634.90 370.98 634.44 371.05C633.98 371.13 632.89 371.72 631.88 372.66C630.87 373.61 629.95 374.25 627.72 377.35C625.50 380.45 619.98 388.20 617.04 393.32C614.11 398.45 609.92 407.50 608.14 411.52C606.36 415.54 605.75 417.95 605.18 420.14C604.61 422.34 604.27 424.78 604.33 426.13C604.38 427.48 604.31 428.84 605.54 429.12C606.77 429.40 610.78 428.47 612.50 428.00C614.22 427.53 616.33 426.30 617.00 426.00"/><path fill="none" stroke="#000000" stroke-width="1.5" stroke-linecap="round" stroke-linejoin="round" d="M670.50 326.50C669.90 327.92 667.87 332.01 666.50 336.00C665.13 339.99 663.21 346.11 661.37 353.09C659.54 360.06 656.15 373.54 654.24 382.48C652.33 391.41 649.81 405.09 648.65 412.67C647.48 420.25 646.82 429.95 646.50 433.00"/><path fill="none" stroke="#000000" stroke-width="1.5" stroke-linecap="round" stroke-linejoin="round" d="M643.00 371.00C643.16 370.11 643.61 366.14 644.04 365.06C644.46 363.99 645.26 363.99 645.84 363.82C646.43 363.66 646.79 363.18 647.93 363.99C649.29 364.95 653.16 368.46 654.93 370.28C656.70 372.09 657.90 374.33 659.71 376.09C661.52 377.85 665.91 381.11 667.00 382.00"/><path fill="none" stroke="#000000" stroke-width="1.5" stroke-linecap="round" stroke-linejoin="round" d="M679.50 420.50C680.28 419.10 681.19 414.76 684.68 411.18C688.18 407.61 699.06 399.50 702.81 396.68C706.55 393.85 708.75 392.57 709.63 392.37C710.52 392.18 709.61 393.70 708.71 395.38C707.81 397.07 707.22 398.26 703.64 403.62C699.88 409.25 686.69 428.35 683.60 432.95C683.06 433.77 682.12 434.62 683.05 434.31C685.06 433.65 694.91 429.37 697.00 428.50"/><path fill="none" stroke="#000000" stroke-width="1.5" stroke-linecap="round" stroke-linejoin="round" d="M766.50 385.50C765.33 385.00 760.59 382.53 758.68 382.14C756.76 381.75 755.35 382.31 753.74 382.90C752.12 383.48 750.50 384.06 747.90 386.04C745.30 388.01 738.88 393.74 736.40 396.06C733.91 398.39 733.22 398.98 731.33 401.56C729.44 404.13 724.62 411.69 723.79 413.25C723.03 414.68 725.07 412.68 725.82 411.91C726.57 411.13 726.96 410.74 728.81 408.07C730.65 405.41 733.62 401.71 738.13 394.14C742.64 386.58 754.64 365.33 758.86 357.65C763.09 349.97 763.37 349.11 766.29 342.94C769.21 336.78 775.91 322.29 778.36 316.56C780.81 310.84 782.64 305.15 782.62 304.78C782.59 304.40 780.23 308.55 778.18 314.06C776.14 319.57 771.59 332.33 768.97 341.52C766.34 350.72 762.28 367.86 760.68 375.36C759.08 382.86 758.76 387.17 758.31 391.53C757.86 395.88 757.65 401.15 757.70 404.38C757.76 407.61 757.96 410.43 758.68 413.07C759.40 415.72 761.93 420.66 762.50 422.00"/><path fill="none" stroke="#000000" stroke-width="1.5" stroke-linecap="round" stroke-linejoin="round" d="M839.00 336.50C838.55 335.80 836.59 332.36 836.00 331.85C835.41 331.35 835.23 332.42 835.08 333.12C834.93 333.81 835.01 335.99 835.00 336.50"/><path fill="none" stroke="#000000" stroke-width="1.5" stroke-linecap="round" stroke-linejoin="round" d="M828.00 397.50C827.70 397.50 827.12 398.15 826.00 397.50C824.88 396.85 821.38 393.94 820.55 393.18C820.16 392.81 819.99 392.64 820.46 392.38C821.05 392.05 823.89 391.21 824.50 391.00"/><path fill="none" stroke="#000000" stroke-width="1.5" stroke-linecap="round" stroke-linejoin="round" d="M897.50 310.00C896.69 309.86 893.49 309.18 892.07 309.07C890.66 308.97 889.36 308.96 888.06 309.30C886.76 309.65 884.93 310.38 883.42 311.36C881.91 312.35 879.67 314.16 877.98 315.84C876.29 317.52 873.93 320.27 872.14 322.58C870.36 324.88 867.90 328.27 866.07 331.22C864.24 334.17 861.73 338.73 859.95 342.26C858.18 345.79 855.84 350.89 854.24 354.77C852.65 358.66 850.63 364.11 849.33 368.14C848.03 372.17 846.44 377.79 845.56 381.64C844.68 385.50 843.81 390.45 843.48 393.86C843.15 397.27 843.09 401.57 843.36 404.37C843.62 407.17 844.40 410.42 845.24 412.51C846.09 414.60 847.66 416.88 849.00 418.30C850.34 419.72 852.42 421.10 854.16 421.97C855.90 422.84 857.56 423.34 860.62 424.10C863.68 424.86 871.53 426.22 874.56 427.02C877.60 427.82 879.06 428.53 880.85 429.43C882.65 430.32 884.83 431.64 886.50 433.00C888.17 434.36 891.17 437.67 892.00 438.50"/>
</svg>